<svg xmlns="http://www.w3.org/2000/svg" width="1897" height="2632" fill="none"><path d="M749.554 578.14L529.657 413.812l233.887-180.074m-14 344.4l332.986 91.47m-332.986-91.47L990.74 394.846M749.554 578.14l.332-8.165m332.654 99.635l201 281.35m-201-281.35l98.97-10.105 205.6 29.924m-304.57-19.82l70.18-113.615 148.94-150.443M1082.54 669.61l-91.8-274.763m292.79 556.113l6.4 377.04 267.12-183.45m-273.53-193.59l273.53 193.59m-273.53-193.59l363.86-86.747m-363.86 86.747l103.58-261.53m-103.58 261.53l-278.16 115.09m551.7 78.5l90.33-280.338m-90.33 280.338l9.88 113.8 215.28 52.56 113.78-181.1-248.6-265.618m0 0l-260.3-174.764m260.28 174.784l21.72-356.528-367.45-102.133m85.45 283.877l-85.45-283.877m0 0l-200.24-24.922m200.24 24.922L998.568 1m-7.827 393.846l110.68-14.217m-110.68 14.217L865.305 305.9m236.115 74.73L998.568 1m0 0L865.305 305.9m-101.76-72.16l101.76 72.16m-101.76-72.16l-13.658 336.236M865.305 305.9l-115.42 264.075M1320.2 1731.42l250.66-201.26-281.02-201.26m30.36 402.52L934.248 1852m385.962-120.58l-289.7-204.73m289.7 204.73l-.72-9.55M934.248 1852l-223.77 337.45M934.248 1852l-116.222-7.8-239.384 43.37M934.248 1852l-86.733-130.13L667.1 1551.85M934.248 1852l96.272-325.3m-320.043 662.76l7.806 441.55-320.045-203.86m312.24-237.7l-312.24 237.7m312.24-237.7l-429.33-86.75m429.33 86.75l-131.835-301.9m-180.404 539.58l-117.1-324.44m117.1 324.44l-6.94 133.6-249.79 70.27L1 2423.67l280.148-320.97m0 0l297.494-215.14M281.148 2102.7l-39.897-416.4 425.86-134.46m-88.468 335.7l88.468-335.7m0 0l233.312-37.3m-233.312 37.3l338.26-485.8m25.15 460.64l-130.098-12.15m130.098 12.15l143.18-109.2m-273.278 97.05l104.948-448.5m0 0l168.33 351.44m116.15-88.6l-116.15 88.6m116.15-88.6l29.64 392.97m-145.8-304.38l145.8 304.38" stroke="#137d64" stroke-opacity=".2"/></svg>