<svg xmlns="http://www.w3.org/2000/svg" width="1440" height="2633" fill="none" xmlns:v="https://vecta.io/nano"><path d="M603.616 579.07L383.7 414.737l233.906-180.08m-13.99 344.412l333.018 91.473M603.616 579.07L844.823 395.77M603.616 579.07l.332-8.165m332.686 99.638l200.996 281.36m-200.996-281.36l98.976-10.105 205.6 29.925m-304.586-19.82l70.176-113.618 148.96-150.448M936.634 670.542l-91.81-274.77m292.807 556.13l6.42 377.058 267.14-183.46m-273.56-193.598L1411.2 1145.5m-273.56-193.598l363.9-86.75m-363.9 86.75l103.6-261.54m-103.6 261.54L859.453 1067m551.737 78.5l90.34-280.348M1411.2 1145.5l9.88 113.8 215.3 52.57 113.8-181.1-248.63-265.628m0 0l-260.3-174.8m260.3 174.8l21.72-356.54-367.48-102.136m85.45 283.886l-85.45-283.886m0 0l-200.257-24.924m200.257 24.924L852.65 1.91m-7.828 393.86l110.7-14.22m-110.7 14.22l-125.446-88.95m236.136 74.732L852.65 1.91m0 0L719.377 306.82m-101.77-72.163l101.77 72.163m-101.77-72.163l-13.66 336.247m115.43-264.084l-115.43 264.084M1174.32 1732.4L1425 1531.12l-281.04-201.26m30.36 402.53l-385.994 120.58m385.994-120.58l-289.712-204.74m289.712 204.74l-.72-9.55m-385.274 130.13l-223.8 337.46m223.8-337.46l-116.232-7.8-239.403 43.38m355.635-35.57l-86.74-130.13-180.42-170.03m267.16 300.16l96.282-325.32m-320.072 662.78l7.807 441.57-320.072-203.87m312.265-237.7l-312.265 237.7m312.265-237.7l-429.365-86.75m429.365 86.75l-131.845-301.9m-180.42 539.6l-117.1-324.45m117.1 324.45l-6.94 133.6L-4.48 2632-145 2424.66l280.17-320.98m0 0l297.52-215.14m-297.52 215.14l-39.9-416.4 425.895-134.46m-88.475 335.73l88.475-335.73m0 0l233.33-37.3m-233.33 37.3L859.453 1067m25.155 460.65l-130.11-12.14m130.11 12.14l143.192-109.2m-273.303 97.06L859.453 1067m0 0l168.347 351.45m116.16-88.6l-116.16 88.6m116.16-88.6l29.64 392.98m-145.8-304.4l145.8 304.4" stroke="#137d64" stroke-opacity=".2"/></svg>