<svg width="24" height="24" fill="none" xmlns="http://www.w3.org/2000/svg"><path d="M11.867 4A5.875 5.875 0 006 9.867c0 5.69 5.536 10.017 5.536 10.017a.533.533 0 00.665 0s5.537-4.327 5.536-10.017c0-3.234-2.636-5.867-5.87-5.867v0zm0 1.067a4.794 4.794 0 014.803 4.8c0 4.655-4.215 8.333-4.8 8.831-.58-.495-4.803-4.174-4.803-8.831 0-2.658 2.142-4.8 4.8-4.8z" fill="#617D97" stroke="#617D97" stroke-width=".3"/><path d="M11.867 7.201A2.673 2.673 0 009.2 9.867a2.676 2.676 0 002.666 2.67 2.68 2.68 0 002.67-2.67 2.676 2.676 0 00-2.67-2.666zm0 1.067c.89 0 1.602.709 1.602 1.599s-.712 1.602-1.602 1.602c-.89 0-1.599-.712-1.599-1.602 0-.89.709-1.599 1.599-1.599z" fill="#617D97" stroke="#617D97" stroke-width=".3"/></svg>