<svg width="104" height="104" fill="none" xmlns="http://www.w3.org/2000/svg"><path d="M95.77 7H17.922c-3.738 0-6.77 2.985-6.77 6.667V67h-8.46A1.68 1.68 0 001 68.667c0 3.681 3.03 6.666 6.77 6.666h49.076v20c0 .92.758 1.667 1.693 1.667.449 0 .879-.176 1.196-.488l8.957-8.822 8.958 8.822a1.705 1.705 0 001.844.361 1.666 1.666 0 001.044-1.54v-20h5.077c3.739 0 6.77-2.984 6.77-6.666V15.333h8.461a1.68 1.68 0 001.692-1.666c0-3.682-3.03-6.667-6.769-6.667zM89 13.667V67h-6.77v3.333h6.315A3.394 3.394 0 0185.615 72H80.54v-1.667h-3.385V91.31l-7.265-7.155a1.71 1.71 0 00-2.393 0L60.23 91.31V70.333h-3.385V72H7.77a3.394 3.394 0 01-2.93-1.667h50.315V67H14.538V13.667c0-1.841 1.516-3.334 3.385-3.334h72.018A6.524 6.524 0 0089 13.667zM92.84 12c.936-1.593 3.007-2.137 4.625-1.215A3.36 3.36 0 0198.699 12h-5.86z" fill="#DAB588"/><path d="M65.308 17H38.23v3.333h27.077V17zM82.23 27H21.309v3.333H82.23V27zm0 6.667H21.309V37H82.23v-3.333zM45 55.333H23v3.334h22v-3.334z" fill="#DAB588"/><path d="M83.083 58.313l-2.05-3.616 2.058-3.613a1.563 1.563 0 00-.728-2.206l-3.819-1.722-.493-4.113a1.595 1.595 0 00-1.899-1.36l-4.125.805-2.853-3.043a1.666 1.666 0 00-2.33-.018l-.018.018-2.853 3.043-4.125-.805a1.6 1.6 0 00-1.9 1.36l-.492 4.113-3.82 1.725a1.566 1.566 0 00-.727 2.206l2.058 3.61-2.058 3.613a1.563 1.563 0 00.728 2.206l3.82 1.726.492 4.116a1.595 1.595 0 001.9 1.36l4.124-.806 2.853 3.043a1.618 1.618 0 002.349 0l2.852-3.043 4.125.806a1.59 1.59 0 001.251-.272c.358-.26.59-.654.64-1.088l.493-4.113 3.82-1.725a1.566 1.566 0 00.727-2.207zm-5.278-2.847l1.646 2.893-3.059 1.382c-.507.23-.856.702-.921 1.248l-.394 3.298-3.307-.644a1.592 1.592 0 00-1.485.472L68 66.555l-2.285-2.437a1.611 1.611 0 00-1.484-.474l-3.308.645-.393-3.298a1.578 1.578 0 00-.922-1.248l-3.06-1.382 1.647-2.893a1.526 1.526 0 000-1.542v.007L56.55 51.04l3.06-1.382c.506-.23.855-.702.92-1.248l.394-3.298 3.308.644a1.6 1.6 0 001.484-.473L68 42.84l2.285 2.437c.375.404.94.584 1.485.472l3.307-.644.394 3.298c.065.546.414 1.019.921 1.248l3.06 1.382-1.647 2.893a1.555 1.555 0 000 1.541z" fill="#617D97"/><path d="M68 46.818c-4.418 0-8 3.528-8 7.879.005 4.35 3.584 7.873 8 7.879 4.418 0 8-3.528 8-7.879 0-4.351-3.582-7.879-8-7.879zm0 12.606c-2.65 0-4.8-2.116-4.8-4.727 0-2.61 2.15-4.727 4.8-4.727 2.651 0 4.8 2.116 4.8 4.727 0 2.61-2.149 4.727-4.8 4.727z" fill="#617D97"/></svg>