<svg width="104" height="104" fill="none" xmlns="http://www.w3.org/2000/svg"><path d="M37.63 24.932h33.765c.659 0 1.193-.537 1.193-1.201s-.534-1.201-1.193-1.201H37.63a2.56 2.56 0 00-2.55 2.566v8.41a2.56 2.56 0 002.55 2.566h33.765c.659 0 1.193-.538 1.193-1.201 0-.664-.534-1.201-1.193-1.201H37.63a.163.163 0 01-.163-.164v-8.41c0-.09.073-.164.163-.164zm-.805 26.335h29.337c.659 0 1.193-.538 1.193-1.202 0-.663-.534-1.2-1.193-1.2H36.825c-.66 0-1.194.537-1.194 1.2 0 .664.535 1.202 1.194 1.202zm0 8.37h29.337c.659 0 1.193-.538 1.193-1.201s-.534-1.201-1.193-1.201H36.825c-.66 0-1.194.538-1.194 1.201s.535 1.201 1.194 1.201zm0 8.371h29.337c.659 0 1.193-.538 1.193-1.201 0-.664-.534-1.202-1.193-1.202H36.825c-.66 0-1.194.538-1.194 1.201 0 .664.535 1.202 1.194 1.202zm0 8.37h35.123c.66 0 1.194-.537 1.194-1.2 0-.664-.534-1.202-1.194-1.202H36.825c-.66 0-1.194.538-1.194 1.201 0 .664.535 1.201 1.194 1.201zm0-33.238h29.337c.66 0 1.193-.537 1.193-1.2 0-.664-.534-1.202-1.193-1.202H36.825c-.66 0-1.194.538-1.194 1.201 0 .664.535 1.201 1.194 1.201z" fill="#DAB588"/><path fill-rule="evenodd" clip-rule="evenodd" d="M91.416 34.778l-.462-6.028a4.581 4.581 0 00-2.014-3.444V22.91a4.326 4.326 0 00-3.155-4.168C85.739 14.465 82.27 11 78.01 11H20.776l-.044.002h-.108c-4.204.08-7.624 3.59-7.624 7.824v2.566a1.51 1.51 0 001.503 1.513h11.661v67.143c0 1.628 1.316 2.952 2.933 2.952h49.495c.66 0 1.193-.538 1.193-1.201 0-.664-.534-1.201-1.193-1.201H29.097a.548.548 0 01-.546-.55V18.957a8.088 8.088 0 00-2.235-5.555H78.01c2.954 0 5.359 2.404 5.388 5.37a4.327 4.327 0 00-3.051 4.138v2.396a4.58 4.58 0 00-2.013 3.444l-.42 5.459-3.39 2.363a5.611 5.611 0 00-2.394 4.603v16.042l-1.241 2.402a1.205 1.205 0 00.508 1.62 1.193 1.193 0 001.61-.511l1.375-2.663c.088-.172.135-.362.135-.555V41.175c0-1.048.51-2.03 1.367-2.628l1.812-1.264a200.36 200.36 0 00.066 26.557l.423 5.15c.25 2.631.558 5.29.912 7.904l.93 6.852c.103.762.482 1.43 1.026 1.909.016.079.04.157.074.234l2.422 5.6a1.192 1.192 0 002.188 0l2.422-5.6c.033-.077.058-.155.074-.234a3.095 3.095 0 001.026-1.91l.93-6.852a199.99 199.99 0 001.226-42.115zM79.697 53.006c.053 3.564.202 7.125.447 10.667l.418 5.088c.215 2.252.473 4.523.766 6.769h6.63a197.431 197.431 0 001.632-22.524h-9.893zm-64.31-32.503h10.777v-1.546a5.66 5.66 0 00-1.677-4.003c-1.04-1.027-2.4-1.583-3.817-1.55-2.913.055-5.283 2.488-5.283 5.422v1.677zM80.326 33.99l-.075.973a196.721 196.721 0 00-.502 9.73h9.789a196.81 196.81 0 00-.501-9.73l-.075-.973h-8.636zm2.534-7.054c-1.117 0-2.06.878-2.146 2l-.204 2.651h8.267l-.203-2.652a2.168 2.168 0 00-2.146-2H82.86zm-.125-4.026v1.624h3.818V22.91c0-1.06-.856-1.922-1.909-1.922s-1.91.862-1.91 1.922zm-3.037 24.185a195.4 195.4 0 00-.02 3.508h9.934c.004-1.169-.007-2.339-.024-3.508h-9.89zm6.513 36.926a.694.694 0 00.684-.6l.745-5.49h-5.992l.745 5.49c.046.342.34.6.684.6h3.134zm-.885 2.402h-1.364L84.644 88l.682-1.577z" fill="#DAB588"/><path d="M85.785 18.742a4.326 4.326 0 013.155 4.168v2.396a4.581 4.581 0 012.014 3.444l.462 6.028a199.99 199.99 0 01-1.227 42.116l-.93 6.852a3.095 3.095 0 01-1.025 1.909c-.016.079-.04.157-.074.234l-2.422 5.6a1.192 1.192 0 01-2.188 0l-2.422-5.6a1.203 1.203 0 01-.074-.234 3.096 3.096 0 01-1.026-1.91l-.93-6.852a200.499 200.499 0 01-.912-7.903l-.423-5.15a200.36 200.36 0 01-.066-26.557l-1.812 1.264a3.204 3.204 0 00-1.368 2.628V57.51c0 .193-.046.383-.134.555l-1.376 2.662a1.193 1.193 0 01-1.61.512 1.205 1.205 0 01-.507-1.62l1.24-2.402V41.175c0-1.836.896-3.557 2.396-4.603l3.39-2.363.419-5.459a4.58 4.58 0 012.013-3.444V22.91c0-1.949 1.287-3.6 3.05-4.139m2.387-.03C85.739 14.466 82.27 11 78.01 11H20.776l-.044.002h-.108c-4.204.08-7.624 3.59-7.624 7.824v2.566a1.51 1.51 0 001.503 1.513h11.661v67.143c0 1.628 1.316 2.952 2.933 2.952h49.495c.66 0 1.193-.538 1.193-1.201 0-.664-.534-1.201-1.193-1.201H29.097a.548.548 0 01-.546-.55V18.957a8.088 8.088 0 00-2.235-5.555H78.01c2.954 0 5.359 2.404 5.388 5.37m2.386-.03l-2.386.03m-45.77 6.16h33.766c.659 0 1.193-.537 1.193-1.201s-.534-1.201-1.193-1.201H37.63a2.56 2.56 0 00-2.55 2.566v8.41a2.56 2.56 0 002.55 2.566h33.765c.659 0 1.193-.538 1.193-1.201 0-.664-.534-1.201-1.193-1.201H37.63a.163.163 0 01-.163-.164v-8.41c0-.09.073-.164.163-.164zm-.804 18.208h29.337c.66 0 1.193-.537 1.193-1.2 0-.664-.534-1.202-1.193-1.202H36.825c-.66 0-1.194.538-1.194 1.201 0 .664.535 1.201 1.194 1.201zm0 8.127h29.337c.659 0 1.193-.538 1.193-1.202 0-.663-.534-1.2-1.193-1.2H36.825c-.66 0-1.194.537-1.194 1.2 0 .664.535 1.202 1.194 1.202zm0 8.37h29.337c.659 0 1.193-.538 1.193-1.201s-.534-1.201-1.193-1.201H36.825c-.66 0-1.194.538-1.194 1.201s.535 1.201 1.194 1.201zm0 8.37h29.337c.659 0 1.193-.537 1.193-1.2 0-.664-.534-1.202-1.193-1.202H36.825c-.66 0-1.194.538-1.194 1.201 0 .664.535 1.202 1.194 1.202zm0 8.371h35.123c.66 0 1.194-.537 1.194-1.2 0-.664-.534-1.202-1.194-1.202H36.825c-.66 0-1.194.538-1.194 1.201 0 .664.535 1.201 1.194 1.201zm43.32-12.705a196.976 196.976 0 01-.448-10.667h9.893a197.431 197.431 0 01-1.632 22.524h-6.63a197.875 197.875 0 01-.766-6.769l-.418-5.088zm-53.98-43.17H15.386v-1.677c0-2.934 2.37-5.367 5.283-5.423 1.416-.032 2.777.524 3.817 1.551a5.663 5.663 0 011.678 4.003v1.546zm54.086 14.46l.075-.973h8.636l.075.973c.248 3.237.413 6.482.5 9.73H79.75c.088-3.252.254-6.499.502-9.73zm.463-6.028a2.168 2.168 0 012.146-2h3.568c1.117 0 2.06.879 2.146 2l.204 2.652H80.51l.204-2.652zm2.02-4.401V22.91c0-1.06.857-1.922 1.91-1.922s1.91.862 1.91 1.922v1.624h-3.82zm-3.057 26.07c-.003-1.17.004-2.34.021-3.509h9.89c.017 1.17.028 2.339.024 3.508h-9.935zm7.218 32.816a.694.694 0 01-.684.601h-3.134a.694.694 0 01-.684-.6l-.745-5.49h5.992l-.745 5.49zm-2.933 3.003h1.364L84.644 88l-.682-1.577z" stroke="#DAB588" stroke-width=".5"/><path d="M85.326 86.424h-1.364L84.644 88l.682-1.576z" fill="#617D97"/><path fill-rule="evenodd" clip-rule="evenodd" d="M91.416 34.778l-.462-6.027a4.582 4.582 0 00-2.014-3.444V22.91a4.326 4.326 0 00-3.155-4.168l-2.386.03a4.327 4.327 0 00-3.051 4.138v2.396a4.58 4.58 0 00-2.014 3.444l-.419 5.459-3.39 2.363c-.798.593-2.394 2.343-2.394 4.603v16.042l-1.242 2.402a1.205 1.205 0 00.509 1.62 1.193 1.193 0 001.61-.511l1.375-2.663a1.21 1.21 0 00.134-.554V41.175c0-1.048.512-2.03 1.368-2.628l1.812-1.263a200.361 200.361 0 00.066 26.556l.423 5.15c.25 2.631.558 5.29.912 7.904l.93 6.852c.103.762.482 1.43 1.026 1.909.016.079.04.157.074.234l2.421 5.6a1.193 1.193 0 002.189 0l2.422-5.6c.033-.077.058-.155.074-.234a3.095 3.095 0 001.026-1.91l.93-6.851a199.99 199.99 0 001.226-42.116zM79.697 53.006c.053 3.564.202 7.125.447 10.667l.418 5.088c.215 2.252.473 4.523.766 6.769h6.63a197.431 197.431 0 001.632-22.524h-9.893zm.629-19.016l-.075.974c-.248 3.23-.414 6.477-.502 9.729h9.789a196.81 196.81 0 00-.501-9.73l-.075-.973h-8.636zm2.534-7.054c-1.117 0-2.06.878-2.146 2l-.204 2.651h8.267l-.203-2.651a2.168 2.168 0 00-2.146-2H82.86zm-.125-4.026v1.624h3.818V22.91c0-1.06-.856-1.922-1.91-1.922a1.917 1.917 0 00-1.908 1.922zm-3.037 24.185a195.46 195.46 0 00-.02 3.509h9.934a195.4 195.4 0 00-.024-3.509h-9.89zm6.513 36.926a.694.694 0 00.684-.6l.745-5.489h-5.992l.745 5.489c.046.342.34.6.684.6h3.134zm-.885 2.403h-1.364L84.644 88l.682-1.576z" fill="#617D97"/><path d="M85.326 86.424h-1.364L84.644 88l.682-1.576z" stroke="#617D97" stroke-width=".5"/><path clip-rule="evenodd" d="M91.416 34.778l-.462-6.027a4.582 4.582 0 00-2.014-3.444V22.91a4.326 4.326 0 00-3.155-4.168l-2.386.03a4.327 4.327 0 00-3.051 4.138v2.396a4.58 4.58 0 00-2.014 3.444l-.419 5.459-3.39 2.363c-.798.593-2.394 2.343-2.394 4.603v16.042l-1.242 2.402a1.205 1.205 0 00.509 1.62 1.193 1.193 0 001.61-.511l1.375-2.663a1.21 1.21 0 00.134-.554V41.175c0-1.048.512-2.03 1.368-2.628l1.812-1.263a200.361 200.361 0 00.066 26.556l.423 5.15c.25 2.631.558 5.29.912 7.904l.93 6.852c.103.762.482 1.43 1.026 1.909.016.079.04.157.074.234l2.421 5.6a1.193 1.193 0 002.189 0l2.422-5.6c.033-.077.058-.155.074-.234a3.095 3.095 0 001.026-1.91l.93-6.851a199.99 199.99 0 001.226-42.116zM79.697 53.006c.053 3.564.202 7.125.447 10.667l.418 5.088c.215 2.252.473 4.523.766 6.769h6.63a197.431 197.431 0 001.632-22.524h-9.893zm.629-19.016l-.075.974c-.248 3.23-.414 6.477-.502 9.729h9.789a196.81 196.81 0 00-.501-9.73l-.075-.973h-8.636zm2.534-7.054c-1.117 0-2.06.878-2.146 2l-.204 2.651h8.267l-.203-2.651a2.168 2.168 0 00-2.146-2H82.86zm-.125-4.026v1.624h3.818V22.91c0-1.06-.856-1.922-1.91-1.922a1.917 1.917 0 00-1.908 1.922zm-3.037 24.185a195.46 195.46 0 00-.02 3.509h9.934a195.4 195.4 0 00-.024-3.509h-9.89zm6.513 36.926a.694.694 0 00.684-.6l.745-5.489h-5.992l.745 5.489c.046.342.34.6.684.6h3.134zm-.885 2.403h-1.364L84.644 88l.682-1.576z" stroke="#617D97" stroke-width=".5"/></svg>