<svg width="104" height="104" fill="none" xmlns="http://www.w3.org/2000/svg"><path d="M8 9.972l11.154 2.145a2.259 2.259 0 011.788 2.661v0M8 29.025l8.084 2.021a1.502 1.502 0 001.837-1.162v0m3.021-15.106c1.35.115 4.807-.171 7.828-2.231 3.776-2.575 23.344-7.896 35.532 3.261.858.786.686 4.12-2.06 3.777-3.582-.448-12.388-6.268-23.173-1.107m-18.127-3.7l-3.02 15.106m21.147-11.406c-1.594.763-3.173 1.732-4.806 2.995m4.806-2.995c3.605-1.36 5.15 2.48 2.403 3.681l-15.478 8.358a5 5 0 01-3.551.46l-4.522-1.093M96 93.05l-11.154-2.145a2.259 2.259 0 01-1.788-2.66v0M96 73.997l-8.084-2.02a1.502 1.502 0 00-1.837 1.162v0m-3.021 15.105c-1.35-.114-4.807.172-7.828 2.232-3.776 2.574-23.344 7.896-35.532-3.262-.858-.785-.686-4.12 2.06-3.776 3.582.448 12.388 6.267 23.173 1.106m18.127 3.7l3.02-15.105M64.932 84.545c1.594-.763 3.173-1.731 4.806-2.994m-4.806 2.994c-3.605 1.36-5.15-2.48-2.403-3.68l15.478-8.359a5 5 0 013.551-.46l4.522 1.094m-9.42-27.464l-7.038-8.926m7.038 8.926a89052.104 89052.104 0 01-23.517 23.86m23.517-23.86H61.384m8.239-8.926H53.058m16.565 0l-8.24 8.926M36.495 36.75l-7.038 8.926m7.038-8.926l8.583 8.926m-8.583-8.926H53.06m-23.603 8.926c7.782 8.067 23.414 24.134 23.688 23.86m-23.688-23.86h15.62m8.068 23.86l8.24-23.86m-8.24 23.86l-8.067-23.86m0 0l7.982-8.926m-7.982 8.926h16.307M53.06 36.75l8.325 8.926M16.068 15.98v1.03h.858v-1.03h-.858zm71.864 71.064v-1.03h-.858v1.03h.858z" stroke="#DAB588" stroke-width="2.5"/><path d="M76.66 45.676l-7.037-8.926m7.038 8.926a89052.104 89052.104 0 01-23.517 23.86m23.517-23.86H61.384m8.239-8.926H53.058m16.565 0l-8.24 8.926M36.495 36.75l-7.038 8.926m7.038-8.926l8.583 8.926m-8.583-8.926H53.06m-23.603 8.926c7.782 8.067 23.414 24.134 23.688 23.86m-23.688-23.86h15.62m8.068 23.86l8.24-23.86m-8.24 23.86l-8.067-23.86m0 0l7.982-8.926m-7.982 8.926h16.307M53.06 36.75l8.325 8.926" stroke="#617D97" stroke-width="2.5"/></svg>