<svg width="104" height="104" fill="none" xmlns="http://www.w3.org/2000/svg"><path d="M47.88 50.627a3.876 3.876 0 000 5.476 3.876 3.876 0 005.476 0 3.876 3.876 0 000-5.476 3.876 3.876 0 00-5.475 0zm3.612 1.864a1.237 1.237 0 010 1.747 1.237 1.237 0 01-1.747 0 1.237 1.237 0 010-1.746 1.237 1.237 0 011.747 0z" fill="#DAB588"/><path fill-rule="evenodd" clip-rule="evenodd" d="M51.492 52.492a1.237 1.237 0 010 1.746 1.237 1.237 0 01-1.747 0 1.237 1.237 0 010-1.746 1.237 1.237 0 011.747 0zm-3.611-1.865a3.876 3.876 0 000 5.476 3.876 3.876 0 005.475 0 3.876 3.876 0 000-5.476 3.876 3.876 0 00-5.475 0z" fill="#DAB588"/><path fill-rule="evenodd" clip-rule="evenodd" d="M30.552 97c1.346 0 2.457-.398 3.267-1.208l.036-.035.01-.01c.128-.122.237-.264 4.237-5.491 1.616-2.11 3.865-5.05 7.007-9.152v.148c0 1.158 1.3 1.846 2.256 1.193l3.048-2.077a.362.362 0 01.41 0l3.047 2.077c.957.653 2.257-.034 2.257-1.193V77.78l1.491 3.135c.496 1.043 1.963 1.112 2.55.109l1.861-3.184c.076-.13.22-.2.37-.177l3.645.567c1.145.176 2.022-1 1.525-2.047l-6.357-13.367a4.702 4.702 0 011.79-1.533l1.432-.704a2.055 2.055 0 001.014-2.575 152.695 152.695 0 0111.27-9.535c5.4-4.136 9.257-7.088 12.013-9.198 6.788-5.195 6.91-5.29 7.013-5.401l.005-.007.036-.037c1.697-1.697 1.586-4.752-.303-8.633.13-.933-.042-2.193-.808-3.886-1.514-2.803-2.259-3.744-3.71-5.495-.429-.486-.885-.97-1.353-1.44-3.522-3.521-7.922-6.234-10.806-5.864-3.888-1.896-6.949-2.01-8.648-.31a3.822 3.822 0 00-.39.456l-7.544 9.854c-7.799 10.187-7.98 10.425-9.503 12.294l-4.114 4.843c-.858.97-1.739 1.937-2.627 2.89a2.055 2.055 0 00-2.574 1.013l-.705 1.433a4.722 4.722 0 01-2.573 2.339l-.86.326a2.054 2.054 0 00-1.16 2.732 152.743 152.743 0 01-10.849 9.142c-5.225 4.003-9.004 6.895-11.74 8.99-7.042 5.39-7.175 5.492-7.287 5.612l-.007.007-.033.035c-1.608 1.608-1.587 4.489.058 8.111C12.145 86.854 23.744 97 30.552 97zM92.76 25.117c.134-.134.33-.92-.487-2.723-1-2.207-1.81-3.187-3.284-4.837-.394-.446-.811-.89-1.242-1.32-4.068-4.07-7.562-5.332-8.622-5.13a1.312 1.312 0 01-.18.06.334.334 0 00-.077.056c-.133.132-.328.915.484 2.713.82 1.815 2.319 3.894 4.22 5.853a1.79 1.79 0 01-.015 2.502l-.58.58c4.42 2.538 8.165 3.43 9.761 2.265a.189.189 0 00.022-.02zm-23.502-11.46c-2.593 3.385-4.65 6.072-6.298 8.226-6.338 8.28-6.641 8.676-8.194 10.584l-4.185 4.927c-.937 1.057-1.9 2.114-2.87 3.15a50.2 50.2 0 003.237 4.566 8.24 8.24 0 016.081 3.035c3.968-3.456 6.45-5.353 15.931-12.597h.001c2.234-1.708 4.856-3.711 7.978-6.102-4.21-3.436-8.779-8.568-10.9-13.542a15.642 15.642 0 01-.78-2.248zM59.753 76.51a2.983 2.983 0 013.052-1.452l1.415.22-7.679-16.147a8.14 8.14 0 01-.413.396V71.64l2.903 6.106.722-1.236zM58.24 56.564l1.738 3.655c.827-.795 1.49-1.12 2.229-1.483l.11-.054a52.815 52.815 0 01-3.876-2.648 8.33 8.33 0 01-.2.53zm35.681-24.603c.516-.515.689-1.906-.213-4.252l-4.866 3.694c2.671 1.2 4.438 1.2 5.08.558zM80.676 21.443l.428-.428c-1.978-2.152-3.683-4.619-4.495-6.82l-1.938 2.553c1.978 1.772 4.01 3.362 6.005 4.695zm-7.942-6.505l3.54-4.663c-2.346-.902-3.737-.728-4.252-.213-.664.663-.545 2.359.3 4.47l.412.406zm16.15 13.124c-3.92-.727-8.241-3.323-11.445-5.669 2.48 2.847 5.627 5.67 8.845 7.642l2.6-1.973zm1.438 6.668c-2.47-.631-5.11-2.148-7.21-3.63-3.315 2.54-6.083 4.655-8.427 6.446-9.88 7.549-12.225 9.34-16.322 12.933.306.825.477 1.689.51 2.557a50.2 50.2 0 004.566 3.238 155.29 155.29 0 0111.677-9.898L90.322 34.73zM46.638 57.345a5.636 5.636 0 007.96 0 5.635 5.635 0 000-7.96 5.636 5.636 0 00-7.96 0 5.636 5.636 0 000 7.96zm-1.572-15.2a7.35 7.35 0 01-4.005 3.64l-.21.08a50.137 50.137 0 002.432 3.688 8.26 8.26 0 014.666-4.01 52.88 52.88 0 01-2.648-3.877l-.235.478zm-28.141 24.61c-6.85 5.245-6.863 5.255-6.865 5.267 0 0 0 .002-.005.006-1.438 1.439.738 7.794 7.422 14.478A41.679 41.679 0 0021.2 89.82l23.5-30.683a8.25 8.25 0 01-2.32-6.403 52.895 52.895 0 01-2.885-4.052 155.401 155.401 0 01-10.635 8.931l-11.936 9.142zm28.184 4.715v5.298l-8.483 11.076-.02.028-.01.013-.021.027-.694.906c-3.895 5.086-3.905 5.099-3.919 5.104 0 0-.003.001-.007.006-.975.975-4.262.36-8.621-2.557l21.775-28.43v8.529zm3.82 6.72c1.026-.7 2.353-.7 3.38 0l1.182.806V61.115a8.31 8.31 0 01-5.746 0v17.881l1.184-.806z" fill="#DAB588"/><path d="M47.88 50.627a3.876 3.876 0 000 5.476 3.876 3.876 0 005.476 0 3.876 3.876 0 000-5.476 3.876 3.876 0 00-5.476 0zm3.612 1.864a1.236 1.236 0 11-1.747 0 1.237 1.237 0 011.747 0z" fill="#617D97"/><path fill-rule="evenodd" clip-rule="evenodd" d="M51.492 52.492a1.236 1.236 0 11-1.747 0 1.237 1.237 0 011.747 0zm-3.611-1.865a3.876 3.876 0 000 5.476 3.876 3.876 0 005.475 0 3.876 3.876 0 000-5.476 3.876 3.876 0 00-5.476 0z" fill="#617D97"/><path fill-rule="evenodd" clip-rule="evenodd" d="M45.109 81.104v.148c0 1.158 1.3 1.846 2.256 1.193l3.048-2.077a.362.362 0 01.41 0l3.047 2.077c.957.653 2.257-.034 2.257-1.193V77.78l1.491 3.135c.496 1.043 1.963 1.112 2.55.109l1.86-3.184c.077-.13.222-.2.372-.177l3.644.567c1.145.176 2.022-1 1.525-2.047l-6.357-13.367a4.7 4.7 0 011.79-1.533l1.432-.704a2.055 2.055 0 001.014-2.575l-2.01-1.73a50.215 50.215 0 01-4.564-3.238l-.433 2.998a52.809 52.809 0 003.876 2.648l-.11.054c-.74.363-1.402.688-2.229 1.483l-1.738-3.655-1.699 2.567 7.679 16.147-1.415-.22a2.983 2.983 0 00-3.052 1.451l-.722 1.237-2.903-6.106V59.527c.147-.132.283-.262.413-.396l1.7-2.567c.072-.175.139-.352.2-.53l.433-2.998a8.295 8.295 0 00-.51-2.557l-1.336-2.334a8.24 8.24 0 00-6.08-3.036 50.2 50.2 0 01-3.239-4.565l-1.73-2.01a2.055 2.055 0 00-2.574 1.014l-.705 1.433a4.722 4.722 0 01-2.573 2.339l-.86.326a2.054 2.054 0 00-1.16 2.732l1.39 2.304a52.888 52.888 0 002.883 4.052 8.25 8.25 0 002.321 6.403l.408 3.804v18.163zm3.82-2.915c1.026-.699 2.353-.7 3.38 0l1.182.807V61.115a8.31 8.31 0 01-5.746 0v17.881l1.184-.806zm-2.291-20.844a5.636 5.636 0 007.96 0 5.635 5.635 0 000-7.96 5.636 5.636 0 00-7.96 0 5.636 5.636 0 000 7.96zm-1.572-15.2a7.35 7.35 0 01-4.005 3.64l-.21.08a50.114 50.114 0 002.432 3.688 8.26 8.26 0 014.666-4.01 52.913 52.913 0 01-2.648-3.877l-.235.478z" fill="#617D97"/><path fill-rule="evenodd" clip-rule="evenodd" d="M51.492 52.492a1.236 1.236 0 11-1.747 0 1.237 1.237 0 011.747 0zm-3.611-1.865a3.876 3.876 0 000 5.476 3.876 3.876 0 005.475 0 3.876 3.876 0 000-5.476 3.876 3.876 0 00-5.476 0z" fill="#617D97"/></svg>