<svg width="104" height="104" fill="none" xmlns="http://www.w3.org/2000/svg"><path d="M10 32.575V90.97c0 4.987 4.056 9.03 9.06 9.03h71.88c5.004 0 9.06-4.043 9.06-9.03V32.575m-90 0h90m-90 0V25.05c0-4.987 4.056-9.03 9.06-9.03h2.114M100 32.575V25.05c0-4.987-4.056-9.03-9.06-9.03h-2.08m-67.686 0c-.2-2.007.363-6.02 4.229-6.02s4.43 4.013 4.228 6.02m-8.457 0v6.923c0 1.405.846 4.214 4.229 4.214 3.382 0 4.228-2.81 4.228-4.214V16.02m0 0h21.176m0 0c-.201-2.007.362-6.02 4.228-6.02 3.866 0 4.43 4.013 4.229 6.02m-8.457 0v6.923c0 1.405.846 4.214 4.228 4.214 3.383 0 4.229-2.81 4.229-4.214V16.02m0 0h21.14m0 0c-.2-2.007.363-6.02 4.229-6.02 3.865 0 4.43 4.013 4.228 6.02m-8.457 0v6.923c0 1.405.846 4.214 4.229 4.214 3.382 0 4.228-2.81 4.228-4.214V16.02" stroke="#DAB588" stroke-width="3.2"/><path fill-rule="evenodd" clip-rule="evenodd" d="M63.318 45.062a.896.896 0 00-.206-.985l-2.795-2.738-.01-.006a.947.947 0 00-.145-.096.928.928 0 00-.161-.099c-.006-.002-.01-.007-.015-.01a.908.908 0 00-.15-.023.923.923 0 00-.177-.034h-9.317a.947.947 0 00-.658.268l-2.795 2.738a.897.897 0 00-.14 1.115l2.436 3.978c-.258.07-.518.134-.772.214-.613.19-1.217.41-1.807.66-4.51 1.881-8.224 5.22-10.526 9.46a20.622 20.622 0 00-2.12 13.838c.93 4.715 3.48 8.975 7.227 12.07a21.688 21.688 0 0013.363 4.94c4.9.101 9.687-1.446 13.563-4.385 3.876-2.938 6.607-7.09 7.737-11.762a20.61 20.61 0 00-1.524-13.914c-2.118-4.33-5.687-7.819-10.111-9.884a15.92 15.92 0 00-2.658-1.031l1.761-4.314zm9.325 16.017c-1.933-3.954-5.19-7.14-9.23-9.025-.632-.293-2.185-.943-3.343-1.2l-.056-.018a20.299 20.299 0 00-11.033.286c-.557.173-1.105.373-1.641.6-4.117 1.716-7.51 4.764-9.611 8.634a18.828 18.828 0 00-1.938 12.635c.847 4.304 3.176 8.194 6.596 11.02a19.8 19.8 0 0012.2 4.512A19.83 19.83 0 0066.97 84.52c3.54-2.682 6.033-6.472 7.065-10.738a18.816 18.816 0 00-1.392-12.703zM50.804 44.722l-.628-1.285-1.312 1.285h1.94zm7.51-1.826h-6.337l.893 1.826h4.745l.7-1.826zm1.292 1.826h1.53l-1.113-1.09-.417 1.09zm-1.489 3.888c.546.078 1.087.177 1.624.296l.963-2.359h-1.797l-.79 2.063zm-1.915-.194l.715-1.869h-3.155l.9 1.839a22.22 22.22 0 011.54.03zm-4.505-1.869h-1.945l1.338 2.185c.518-.094 1.04-.169 1.566-.224l-.959-1.96z" fill="#617D97"/><path fill-rule="evenodd" clip-rule="evenodd" d="M42.217 58.734a16.208 16.208 0 00-3.956 11.476c.222 4.18 2.065 8.118 5.152 11.01 3.087 2.893 7.185 4.521 11.456 4.553a16.95 16.95 0 0011.524-4.384c3.13-2.846 5.034-6.757 5.32-10.933a16.2 16.2 0 00-3.779-11.532c-2.714-3.232-6.585-5.326-10.822-5.855a17.017 17.017 0 00-11.974 3.01c-.577.383-1.968 1.451-2.921 2.655zm14.674-3.858c-3.77-.47-7.481.63-10.656 2.678-1.097.708-1.613 1.225-2.599 2.362a14.424 14.424 0 00-3.521 10.213 14.485 14.485 0 004.584 9.798 15.075 15.075 0 0010.194 4.053 15.084 15.084 0 0010.257-3.9 14.495 14.495 0 004.735-9.73 14.416 14.416 0 00-3.363-10.263c-2.415-2.876-5.86-4.74-9.63-5.21z" fill="#617D97"/><path clip-rule="evenodd" d="M63.318 45.062a.896.896 0 00-.206-.985l-2.795-2.738-.01-.006a.947.947 0 00-.145-.096.928.928 0 00-.161-.099c-.006-.002-.01-.007-.015-.01a.908.908 0 00-.15-.023.923.923 0 00-.177-.034h-9.317a.947.947 0 00-.658.268l-2.795 2.738a.897.897 0 00-.14 1.115l2.436 3.978c-.258.07-.518.134-.772.214-.613.19-1.217.41-1.807.66-4.51 1.881-8.224 5.22-10.526 9.46a20.622 20.622 0 00-2.12 13.838c.93 4.715 3.48 8.975 7.227 12.07a21.688 21.688 0 0013.363 4.94c4.9.101 9.687-1.446 13.563-4.385 3.876-2.938 6.607-7.09 7.737-11.762a20.61 20.61 0 00-1.524-13.914c-2.118-4.33-5.687-7.819-10.111-9.884a15.92 15.92 0 00-2.658-1.031l1.761-4.314zm9.325 16.017c-1.933-3.954-5.19-7.14-9.23-9.025-.632-.293-2.185-.943-3.343-1.2l-.056-.018a20.299 20.299 0 00-11.033.286c-.557.173-1.105.373-1.641.6-4.117 1.716-7.51 4.764-9.611 8.634a18.828 18.828 0 00-1.938 12.635c.847 4.304 3.176 8.194 6.596 11.02a19.8 19.8 0 0012.2 4.512A19.83 19.83 0 0066.97 84.52c3.54-2.682 6.033-6.472 7.065-10.738a18.816 18.816 0 00-1.392-12.703zM50.804 44.722l-.628-1.285-1.312 1.285h1.94zm7.51-1.826h-6.337l.893 1.826h4.745l.7-1.826zm1.292 1.826h1.53l-1.113-1.09-.417 1.09zm-1.489 3.888c.546.078 1.087.177 1.624.296l.963-2.359h-1.797l-.79 2.063zm-1.915-.194l.715-1.869h-3.155l.9 1.839a22.22 22.22 0 011.54.03zm-4.505-1.869h-1.945l1.338 2.185c.518-.094 1.04-.169 1.566-.224l-.959-1.96z" stroke="#617D97" stroke-width=".5"/><path clip-rule="evenodd" d="M42.217 58.734a16.208 16.208 0 00-3.956 11.476c.222 4.18 2.065 8.118 5.152 11.01 3.087 2.893 7.185 4.521 11.456 4.553a16.95 16.95 0 0011.524-4.384c3.13-2.846 5.034-6.757 5.32-10.933a16.2 16.2 0 00-3.779-11.532c-2.714-3.232-6.585-5.326-10.822-5.855a17.017 17.017 0 00-11.974 3.01c-.577.383-1.968 1.451-2.921 2.655zm14.674-3.858c-3.77-.47-7.481.63-10.656 2.678-1.097.708-1.613 1.225-2.599 2.362a14.424 14.424 0 00-3.521 10.213 14.485 14.485 0 004.584 9.798 15.075 15.075 0 0010.194 4.053 15.084 15.084 0 0010.257-3.9 14.495 14.495 0 004.735-9.73 14.416 14.416 0 00-3.363-10.263c-2.415-2.876-5.86-4.74-9.63-5.21z" stroke="#617D97" stroke-width=".5"/></svg>