<svg width="104" height="104" fill="none" xmlns="http://www.w3.org/2000/svg"><mask id="a" fill="#fff"><path d="M52 30.901l5.224-4.354 5.225-4.354h12.68a1 1 0 001-1V9a1 1 0 00-1-1H43.064a1 1 0 00-1 1v12.194a1 1 0 001 1H52V30.9zm-7.097-11.546v-8.516H73.29v8.516H61.784a1 1 0 00-.64.232l-6.305 5.254v-4.486a1 1 0 00-1-1h-8.936z"/><path d="M47.742 14.677a1 1 0 011-1h.839a1 1 0 011 1v.84a1 1 0 01-1 1h-.84a1 1 0 01-1-1v-.84zM53.42 14.677a1 1 0 011-1h15.032a1 1 0 011 1v.84a1 1 0 01-1 1H54.419a1 1 0 01-1-1v-.84z"/><path fill-rule="evenodd" clip-rule="evenodd" d="M80.252 93.161l-1.148-11.49c4.74-.749 8.38-4.852 8.38-9.8V54.419a1 1 0 00-1-1h-4.678v-1.961c0-1.93-1.06-3.662-2.765-4.55a8.482 8.482 0 002.765-6.263v-2.839c0-4.696-3.819-8.516-8.516-8.516-4.696 0-8.516 3.82-8.516 8.516v2.84c0 3.674 2.343 6.802 5.611 7.994l-7.618 7.618h-7.96c-.158-2.366-1.783-4.428-4.086-5.087l-5.818-1.66v-2.536a8.487 8.487 0 002.839-6.33v-2.839c0-4.696-3.82-8.516-8.516-8.516-4.697 0-8.516 3.82-8.516 8.516v2.84a8.491 8.491 0 002.838 6.33v2.536l-5.818 1.66a5.699 5.699 0 00-4.117 5.46v5.303h-4.677a1 1 0 00-1 1v6.517a1 1 0 001 1h1.838v22.71H8V96h88v-2.839H80.252zm-12.64-22.71v-6.508L77.67 53.885c.727-.727 1.16-1.703 1.257-2.722.004.036.01.07.017.106.012.062.024.123.024.189v17.574a4.264 4.264 0 01-4.258 4.258H63.355v-2.838h4.258zm-4.257 11.355h7.232l1.135 11.355h-8.367V81.806zm10.084 0h2.825L77.4 93.161h-2.825L73.44 81.806zm8.367-12.774V56.258h2.84v15.613c0 3.913-3.185 7.097-7.098 7.097H63.355v-2.839H74.71c3.913 0 7.096-3.184 7.096-7.097zM67.613 40.645v-2.839a5.683 5.683 0 015.677-5.677 5.683 5.683 0 015.678 5.677v2.84a5.683 5.683 0 01-5.678 5.677 5.683 5.683 0 01-5.677-5.678zm-3.67 18.452l9.47-9.47a1.593 1.593 0 012.251 2.251L65.605 61.935H50.58a1.42 1.42 0 010-2.838h13.361zm-30.395-21.29a5.683 5.683 0 015.678-5.678 5.683 5.683 0 015.677 5.677v2.84a5.683 5.683 0 01-5.677 5.677 5.683 5.683 0 01-5.678-5.678v-2.839zm5.678 11.354c.996 0 1.949-.181 2.839-.497v1.525c-.353.543-1.33 1.811-2.84 1.811-1.508 0-2.486-1.268-2.838-1.81v-1.526c.89.316 1.842.497 2.839.497zm-12.774 7.47c0-1.261.847-2.383 2.058-2.73l5.847-1.67c.824 1.073 2.426 2.608 4.869 2.608 2.443 0 4.045-1.535 4.868-2.609l5.848 1.67c1.087.312 1.845 1.257 1.997 2.357h-1.358a4.264 4.264 0 00-4.258 4.258c0 .5.102.974.26 1.42H26.453v-5.303zm-5.678 8.143h44v2.839h-44v-2.839zm9.394 28.387l1.42-2.838h20.954l1.42 2.838H30.167zM23.613 76.13h36.903v17.032h-3.38l-2.84-5.677H29.833l-2.838 5.677h-3.381V76.13zm0-2.839h36.903v-2.838H23.613v2.838z"/></mask><path d="M52 30.901l5.224-4.354 5.225-4.354h12.68a1 1 0 001-1V9a1 1 0 00-1-1H43.064a1 1 0 00-1 1v12.194a1 1 0 001 1H52V30.9zm-7.097-11.546v-8.516H73.29v8.516H61.784a1 1 0 00-.64.232l-6.305 5.254v-4.486a1 1 0 00-1-1h-8.936z" fill="#DAB588"/><path d="M47.742 14.677a1 1 0 011-1h.839a1 1 0 011 1v.84a1 1 0 01-1 1h-.84a1 1 0 01-1-1v-.84zM53.42 14.677a1 1 0 011-1h15.032a1 1 0 011 1v.84a1 1 0 01-1 1H54.419a1 1 0 01-1-1v-.84z" fill="#DAB588"/><path fill-rule="evenodd" clip-rule="evenodd" d="M80.252 93.161l-1.148-11.49c4.74-.749 8.38-4.852 8.38-9.8V54.419a1 1 0 00-1-1h-4.678v-1.961c0-1.93-1.06-3.662-2.765-4.55a8.482 8.482 0 002.765-6.263v-2.839c0-4.696-3.819-8.516-8.516-8.516-4.696 0-8.516 3.82-8.516 8.516v2.84c0 3.674 2.343 6.802 5.611 7.994l-7.618 7.618h-7.96c-.158-2.366-1.783-4.428-4.086-5.087l-5.818-1.66v-2.536a8.487 8.487 0 002.839-6.33v-2.839c0-4.696-3.82-8.516-8.516-8.516-4.697 0-8.516 3.82-8.516 8.516v2.84a8.491 8.491 0 002.838 6.33v2.536l-5.818 1.66a5.699 5.699 0 00-4.117 5.46v5.303h-4.677a1 1 0 00-1 1v6.517a1 1 0 001 1h1.838v22.71H8V96h88v-2.839H80.252zm-12.64-22.71v-6.508L77.67 53.885c.727-.727 1.16-1.703 1.257-2.722.004.036.01.07.017.106.012.062.024.123.024.189v17.574a4.264 4.264 0 01-4.258 4.258H63.355v-2.838h4.258zm-4.257 11.355h7.232l1.135 11.355h-8.367V81.806zm10.084 0h2.825L77.4 93.161h-2.825L73.44 81.806zm8.367-12.774V56.258h2.84v15.613c0 3.913-3.185 7.097-7.098 7.097H63.355v-2.839H74.71c3.913 0 7.096-3.184 7.096-7.097zM67.613 40.645v-2.839a5.683 5.683 0 015.677-5.677 5.683 5.683 0 015.678 5.677v2.84a5.683 5.683 0 01-5.678 5.677 5.683 5.683 0 01-5.677-5.678zm-3.67 18.452l9.47-9.47a1.593 1.593 0 012.251 2.251L65.605 61.935H50.58a1.42 1.42 0 010-2.838h13.361zm-30.395-21.29a5.683 5.683 0 015.678-5.678 5.683 5.683 0 015.677 5.677v2.84a5.683 5.683 0 01-5.677 5.677 5.683 5.683 0 01-5.678-5.678v-2.839zm5.678 11.354c.996 0 1.949-.181 2.839-.497v1.525c-.353.543-1.33 1.811-2.84 1.811-1.508 0-2.486-1.268-2.838-1.81v-1.526c.89.316 1.842.497 2.839.497zm-12.774 7.47c0-1.261.847-2.383 2.058-2.73l5.847-1.67c.824 1.073 2.426 2.608 4.869 2.608 2.443 0 4.045-1.535 4.868-2.609l5.848 1.67c1.087.312 1.845 1.257 1.997 2.357h-1.358a4.264 4.264 0 00-4.258 4.258c0 .5.102.974.26 1.42H26.453v-5.303zm-5.678 8.143h44v2.839h-44v-2.839zm9.394 28.387l1.42-2.838h20.954l1.42 2.838H30.167zM23.613 76.13h36.903v17.032h-3.38l-2.84-5.677H29.833l-2.838 5.677h-3.381V76.13zm0-2.839h36.903v-2.838H23.613v2.838z" fill="#DAB588"/><path d="M52 30.901l5.224-4.354 5.225-4.354h12.68a1 1 0 001-1V9a1 1 0 00-1-1H43.064a1 1 0 00-1 1v12.194a1 1 0 001 1H52V30.9zm-7.097-11.546v-8.516H73.29v8.516H61.784a1 1 0 00-.64.232l-6.305 5.254v-4.486a1 1 0 00-1-1h-8.936z" stroke="#DAB588" stroke-width="4" mask="url(#a)"/><path d="M47.742 14.677a1 1 0 011-1h.839a1 1 0 011 1v.84a1 1 0 01-1 1h-.84a1 1 0 01-1-1v-.84zM53.42 14.677a1 1 0 011-1h15.032a1 1 0 011 1v.84a1 1 0 01-1 1H54.419a1 1 0 01-1-1v-.84z" stroke="#DAB588" stroke-width="4" mask="url(#a)"/><path clip-rule="evenodd" d="M80.252 93.161l-1.148-11.49c4.74-.749 8.38-4.852 8.38-9.8V54.419a1 1 0 00-1-1h-4.678v-1.961c0-1.93-1.06-3.662-2.765-4.55a8.482 8.482 0 002.765-6.263v-2.839c0-4.696-3.819-8.516-8.516-8.516-4.696 0-8.516 3.82-8.516 8.516v2.84c0 3.674 2.343 6.802 5.611 7.994l-7.618 7.618h-7.96c-.158-2.366-1.783-4.428-4.086-5.087l-5.818-1.66v-2.536a8.487 8.487 0 002.839-6.33v-2.839c0-4.696-3.82-8.516-8.516-8.516-4.697 0-8.516 3.82-8.516 8.516v2.84a8.491 8.491 0 002.838 6.33v2.536l-5.818 1.66a5.699 5.699 0 00-4.117 5.46v5.303h-4.677a1 1 0 00-1 1v6.517a1 1 0 001 1h1.838v22.71H8V96h88v-2.839H80.252zm-12.64-22.71v-6.508L77.67 53.885c.727-.727 1.16-1.703 1.257-2.722.004.036.01.07.017.106.012.062.024.123.024.189v17.574a4.264 4.264 0 01-4.258 4.258H63.355v-2.838h4.258zm-4.257 11.355h7.232l1.135 11.355h-8.367V81.806zm10.084 0h2.825L77.4 93.161h-2.825L73.44 81.806zm8.367-12.774V56.258h2.84v15.613c0 3.913-3.185 7.097-7.098 7.097H63.355v-2.839H74.71c3.913 0 7.096-3.184 7.096-7.097zM67.613 40.645v-2.839a5.683 5.683 0 015.677-5.677 5.683 5.683 0 015.678 5.677v2.84a5.683 5.683 0 01-5.678 5.677 5.683 5.683 0 01-5.677-5.678zm-3.67 18.452l9.47-9.47a1.593 1.593 0 012.251 2.251L65.605 61.935H50.58a1.42 1.42 0 010-2.838h13.361zm-30.395-21.29a5.683 5.683 0 015.678-5.678 5.683 5.683 0 015.677 5.677v2.84a5.683 5.683 0 01-5.677 5.677 5.683 5.683 0 01-5.678-5.678v-2.839zm5.678 11.354c.996 0 1.949-.181 2.839-.497v1.525c-.353.543-1.33 1.811-2.84 1.811-1.508 0-2.486-1.268-2.838-1.81v-1.526c.89.316 1.842.497 2.839.497zm-12.774 7.47c0-1.261.847-2.383 2.058-2.73l5.847-1.67c.824 1.073 2.426 2.608 4.869 2.608 2.443 0 4.045-1.535 4.868-2.609l5.848 1.67c1.087.312 1.845 1.257 1.997 2.357h-1.358a4.264 4.264 0 00-4.258 4.258c0 .5.102.974.26 1.42H26.453v-5.303zm-5.678 8.143h44v2.839h-44v-2.839zm9.394 28.387l1.42-2.838h20.954l1.42 2.838H30.167zM23.613 76.13h36.903v17.032h-3.38l-2.84-5.677H29.833l-2.838 5.677h-3.381V76.13zm0-2.839h36.903v-2.838H23.613v2.838z" stroke="#DAB588" stroke-width="4" mask="url(#a)"/><path d="M52 30.901l5.224-4.354 5.225-4.354h12.68a1 1 0 001-1V9a1 1 0 00-1-1H43.064a1 1 0 00-1 1v12.194a1 1 0 001 1H52V30.9zm-7.097-11.546v-8.516H73.29v8.516H61.784a1 1 0 00-.64.232l-6.305 5.254v-4.486a1 1 0 00-1-1h-8.936z" fill="#617D97"/><path d="M47.742 14.677a1 1 0 011-1h.839a1 1 0 011 1v.84a1 1 0 01-1 1h-.84a1 1 0 01-1-1v-.84zM53.42 14.677a1 1 0 011-1H69.45a1 1 0 011 1v.84a1 1 0 01-1 1H54.42a1 1 0 01-1-1v-.84z" fill="#617D97"/></svg>