<svg width="24" height="24" fill="none" xmlns="http://www.w3.org/2000/svg"><path d="M19 15.482v2.107a1.401 1.401 0 01-.957 1.337 1.41 1.41 0 01-.578.068 13.948 13.948 0 01-6.075-2.156 13.714 13.714 0 01-4.223-4.216 13.885 13.885 0 01-2.161-6.09 1.402 1.402 0 01.833-1.412A1.41 1.41 0 016.406 5h2.112a1.41 1.41 0 011.408 1.208c.09.675.255 1.337.493 1.974a1.402 1.402 0 01-.317 1.483l-.894.892a11.251 11.251 0 004.223 4.215l.895-.892a1.409 1.409 0 011.485-.316 9.057 9.057 0 001.978.492 1.408 1.408 0 011.21 1.426z" stroke="#617D97" stroke-width="1.6" stroke-linecap="round" stroke-linejoin="round"/></svg>