<svg width="104" height="104" fill="none" xmlns="http://www.w3.org/2000/svg"><path d="M75.311 73.91a4.589 4.589 0 01-4.583 4.583 4.589 4.589 0 01-4.584-4.584 4.588 4.588 0 014.584-4.583 4.588 4.588 0 014.583 4.583zm-6.53 0c0 1.073.873 1.946 1.947 1.946a1.949 1.949 0 001.946-1.947 1.949 1.949 0 00-1.946-1.947 1.949 1.949 0 00-1.947 1.947z" fill="#DAB588"/><path fill-rule="evenodd" clip-rule="evenodd" d="M68.781 73.91c0 1.073.873 1.946 1.947 1.946a1.949 1.949 0 001.946-1.947 1.949 1.949 0 00-1.946-1.947 1.949 1.949 0 00-1.947 1.947zm6.53 0a4.589 4.589 0 01-4.583 4.583 4.589 4.589 0 01-4.584-4.584 4.588 4.588 0 014.584-4.583 4.588 4.588 0 014.583 4.583z" fill="#DAB588"/><path fill-rule="evenodd" clip-rule="evenodd" d="M48.145 42.415c-3.823-3.826-3.684-3.669-3.897-3.93-.045-.08-.988-1.085-.988-2.78 0-2.368 1.711-3.425 2.03-3.853l1.903-1.903.925-.926a4.411 4.411 0 015.153-.79L69.635 11.87c2.433-2.432 6.214-2.713 8.959-.844l2.595-2.595a4.877 4.877 0 016.9 0l3.488 3.487a4.877 4.877 0 010 6.901l-2.594 2.594a7.055 7.055 0 01.15 7.708C94.213 34.85 97 42.154 97 49.818c0 4.234-.84 8.346-2.497 12.221-.98 2.123-1.55 3.278-2.745 5.065a31.243 31.243 0 01-7.707 7.998l4.46 6.959c4.016.376 7.17 3.765 7.17 7.878v2.919A4.147 4.147 0 0191.54 97h-60.42a5.256 5.256 0 01-5.25-5.25c0-5.363 4.362-9.725 9.724-9.725h23.864v-4.764H39.884a3.964 3.964 0 01-3.96-3.959c0-4.468 3.635-8.103 8.103-8.103h19.476a10.754 10.754 0 016.762-2.385c1.433 0 2.821.28 4.1.803 4.757-2.961 7.686-8.188 7.686-13.8 0-3.617-1.204-7.1-3.412-9.947l-6.865 6.865a4.402 4.402 0 01-.79 5.153l-3.57 3.57a4.4 4.4 0 01-6.226 0L50.574 44.843l-2.429-2.43zm46.218 7.403a28.29 28.29 0 01-2.285 11.185c-.745 1.67-1.233 2.648-2.512 4.636a28.619 28.619 0 01-6.94 7.241 97.98 97.98 0 01-2.15-3.345c-1.27-2.044-2.002-3.224-3.574-4.449 4.85-3.534 7.786-9.208 7.786-15.268a18.84 18.84 0 00-4.17-11.828l6.868-6.867a28.453 28.453 0 016.977 18.695zM31.12 94.363a2.617 2.617 0 01-2.613-2.613 7.096 7.096 0 017.087-7.088h52.174a5.284 5.284 0 015.277 5.277v2.92c0 .83-.675 1.504-1.505 1.504h-60.42zm7.442-21.06a5.472 5.472 0 015.466-5.467h17.111c-1.752 2.762-1.699 5.366-1.678 6.39.004.191.007.327-.004.399H39.885c-.73 0-1.323-.594-1.323-1.323zm23.532 8.722v-8.433l.001-.015v-.013c.033-4.514 3.713-8.113 8.17-8.113a8.148 8.148 0 016.204 2.854l.044.052.007.007.07.084c.305.363.562.765 4.226 6.488l4.54 7.089H62.094zm-6.815-52.07L71.5 13.735a4.425 4.425 0 016.25 0l8.523 8.523a4.416 4.416 0 01.17 6.07l-.022.025c-.069.08-.147.154-16.37 16.377L55.278 29.956zm30.947-19.66l3.487 3.486a2.246 2.246 0 010 3.173l-2.506 2.506-6.66-6.659 2.507-2.506a2.246 2.246 0 013.172 0zM65.55 53.593c-.69.69-1.808.69-2.498 0L46.414 36.955a1.769 1.769 0 010-2.498l3.57-3.57c.69-.69 1.807-.69 2.497 0l16.638 16.639c.69.69.69 1.807 0 2.498l-3.569 3.569z" fill="#DAB588"/><path fill-rule="evenodd" clip-rule="evenodd" d="M70.728 78.493a4.589 4.589 0 004.583-4.584 4.588 4.588 0 00-4.583-4.583 4.588 4.588 0 00-4.584 4.583 4.589 4.589 0 004.584 4.584zm0-2.637a1.949 1.949 0 01-1.947-1.947c0-1.073.873-1.947 1.947-1.947 1.073 0 1.946.874 1.946 1.947a1.949 1.949 0 01-1.946 1.947z" fill="#DAB588"/><path d="M62.095 73.564c.032-4.514 3.712-8.113 8.17-8.113a8.148 8.148 0 016.203 2.854m-14.373 5.259v.013m0-.013v.013m-.002.045v8.403h23.263c-1.917-2.99-3.395-5.3-4.54-7.089-3.665-5.723-3.922-6.125-4.226-6.488a9.214 9.214 0 00-.072-.084m-14.425 5.258v-.013m0 .013v-.013m14.375-5.304l.044.052m-.044-.052l.044.052m-14.418 5.235v-.015m0 .015v-.015m0 .015v.017m0-.017v.017m14.418-5.252l.007.007m-.007-.007a.397.397 0 01.007.007M75.31 73.91a4.589 4.589 0 01-4.583 4.584 4.589 4.589 0 01-4.584-4.584 4.588 4.588 0 014.584-4.583 4.588 4.588 0 014.583 4.583zm-6.53 0c0 1.074.873 1.947 1.947 1.947a1.949 1.949 0 001.946-1.947 1.949 1.949 0 00-1.946-1.947 1.949 1.949 0 00-1.947 1.947zM48.145 42.415c-3.823-3.826-3.684-3.669-3.897-3.93-.045-.08-.988-1.085-.988-2.78 0-2.368 1.711-3.425 2.03-3.853l1.903-1.903.925-.926a4.411 4.411 0 015.153-.79L69.635 11.87c2.433-2.432 6.214-2.713 8.959-.844l2.595-2.595a4.877 4.877 0 016.9 0l3.488 3.487a4.877 4.877 0 010 6.901l-2.594 2.594a7.055 7.055 0 01.15 7.708C94.213 34.85 97 42.154 97 49.818c0 4.234-.84 8.346-2.497 12.221-.98 2.123-1.55 3.278-2.745 5.065a31.243 31.243 0 01-7.707 7.998l4.46 6.959c4.016.376 7.17 3.765 7.17 7.878v2.919A4.147 4.147 0 0191.54 97h-60.42a5.256 5.256 0 01-5.25-5.25c0-5.363 4.362-9.725 9.724-9.725h23.864v-4.764H39.884a3.964 3.964 0 01-3.96-3.959c0-4.468 3.635-8.103 8.103-8.103h19.476a10.754 10.754 0 016.762-2.385c1.433 0 2.821.28 4.1.803 4.757-2.961 7.686-8.188 7.686-13.8 0-3.617-1.204-7.1-3.412-9.947l-6.865 6.865a4.402 4.402 0 01-.79 5.153l-3.57 3.57a4.4 4.4 0 01-6.226 0L50.574 44.843l-2.429-2.43zm43.933 18.588a28.29 28.29 0 002.285-11.185 28.453 28.453 0 00-6.977-18.695l-6.867 6.867a18.84 18.84 0 014.169 11.828c0 6.06-2.937 11.734-7.786 15.268 1.572 1.225 2.304 2.405 3.574 4.45a97.98 97.98 0 002.15 3.344 28.619 28.619 0 006.94-7.241c1.279-1.988 1.767-2.967 2.512-4.636zM28.506 91.75a2.617 2.617 0 002.613 2.613h60.42c.83 0 1.505-.675 1.505-1.505V89.94a5.284 5.284 0 00-5.277-5.277H35.594a7.096 7.096 0 00-7.088 7.088zm15.521-23.914a5.472 5.472 0 00-5.466 5.466c0 .73.593 1.323 1.323 1.323h19.572c.01-.072.008-.208.004-.4-.02-1.023-.075-3.627 1.678-6.389h-17.11zM71.5 13.734L55.278 29.956 70.05 44.729c16.223-16.223 16.301-16.296 16.37-16.377l.022-.026a4.416 4.416 0 00-.17-6.07l-8.523-8.523a4.425 4.425 0 00-6.25 0zm18.212.047l-3.487-3.486a2.246 2.246 0 00-3.172 0L80.547 12.8l6.659 6.66 2.506-2.507a2.246 2.246 0 000-3.173zm-26.66 39.812c.69.69 1.808.69 2.498 0l3.57-3.57c.69-.69.69-1.807 0-2.498L52.48 30.887a1.766 1.766 0 00-2.497 0l-3.569 3.57a1.769 1.769 0 000 2.498l16.638 16.638z" stroke="#DAB588" stroke-width=".2"/><path d="M10.893 41.785c0-4.19 1.359-8.149 3.93-11.446 1.35-1.581 2.125-2.283 3.514-3.454a18.47 18.47 0 0111.188-3.732c6.41 0 12.362 3.309 15.764 8.7l1.904-1.904a21.303 21.303 0 00-17.668-9.432c-4.65 0-9.066 1.473-12.773 4.26-1.596 1.33-2.476 2.109-4.008 3.94-2.936 3.765-4.488 8.284-4.488 13.068 0 11.728 9.54 21.27 21.268 21.27 5.664 0 10.993-2.202 15.006-6.198a21.113 21.113 0 006.044-12.013l-2.429-2.43c-.333 9.977-8.576 18.003-18.62 18.003-10.274 0-18.633-8.358-18.633-18.632z" fill="#617D97" stroke="#617D97" stroke-width=".3"/><path d="M17.668 45.561c-2.925-1.667-2.929-5.883 0-7.552a1.704 1.704 0 00.801-1.94c-.888-3.244 2.085-6.23 5.344-5.339a1.708 1.708 0 001.936-.802c1.667-2.925 5.883-2.928 7.552 0a1.71 1.71 0 001.94.801c3.164-.866 6.232 1.98 5.339 5.344-.207.753.123 1.55.802 1.936 2.925 1.667 2.929 5.883 0 7.552a1.71 1.71 0 00-.801 1.94c.888 3.244-2.085 6.231-5.344 5.34a1.708 1.708 0 00-1.936.801c-1.667 2.926-5.883 2.929-7.552 0a1.71 1.71 0 00-1.94-.8c-3.24.886-6.234-2.082-5.339-5.344a1.709 1.709 0 00-.802-1.937zm1.305-2.29a4.34 4.34 0 012.039 4.927 1.709 1.709 0 002.104 2.099 4.344 4.344 0 014.924 2.04c.655 1.15 2.314 1.151 2.97 0a4.345 4.345 0 014.928-2.039 1.709 1.709 0 002.099-2.104 4.344 4.344 0 012.04-4.924c1.15-.655 1.151-2.313 0-2.97a4.339 4.339 0 01-2.045-4.907 1.708 1.708 0 00-2.098-2.12 4.344 4.344 0 01-4.924-2.04c-.656-1.15-2.314-1.15-2.97 0a4.346 4.346 0 01-4.928 2.04 1.709 1.709 0 00-2.099 2.104 4.344 4.344 0 01-2.04 4.923c-1.15.656-1.152 2.314 0 2.97z" fill="#617D97" stroke="#617D97" stroke-width=".3"/></svg>