<svg width="174" height="227" fill="none" xmlns="http://www.w3.org/2000/svg"><path d="M138.473.611v.621c-.518 2.174-.984 4.866-1.398 8.075-.414 3.209-.776 7.194-1.087 11.956-.207 4.761-.414 10.455-.621 17.08a1479.18 1479.18 0 00-.155 22.98v95.649c9.42-.207 17.08-.518 22.98-.932 6.004-.414 10.766-1.035 14.286-1.863h.621v22.204h-.621c-3.52-.621-8.282-1.191-14.286-1.708-5.9-.518-13.56-.88-22.98-1.087.103 7.557.259 14.182.466 19.875.207 5.693.517 10.662.931 14.906.414 4.141.88 7.712 1.398 10.714.517 2.898 1.087 5.331 1.708 7.298V227h-37.266v-.621c.621-1.967 1.191-4.4 1.708-7.298.518-3.002.932-6.573 1.242-10.714.414-4.244.725-9.213.932-14.906.311-5.693.518-12.318.621-19.875H.435v-6.987L135.212.611h3.261zm-31.521 156.361V59.46l-78.568 97.512h78.568z" fill="#102A43"/></svg>