<svg width="104" height="104" fill="none" xmlns="http://www.w3.org/2000/svg"><path d="M19.2 26.033h8.2a1.367 1.367 0 000-2.733h-8.2a1.367 1.367 0 000 2.733zM34.233 26.033h12.3a1.367 1.367 0 000-2.733h-12.3a1.367 1.367 0 000 2.733zM19.2 41.067h43.733a1.367 1.367 0 000-2.734H19.2a1.367 1.367 0 000 2.734zM19.2 79.333h19.134a1.367 1.367 0 000-2.733H19.2a1.367 1.367 0 100 2.733z" fill="#DAB588"/><path fill-rule="evenodd" clip-rule="evenodd" d="M76.6 44.083l15.58 6.728c.499.218.82.71.82 1.255v19.763a13.92 13.92 0 01-5.863 11.308l-13.222 9.412a2.444 2.444 0 01-2.83 0l-1.12-.797A4.089 4.089 0 0167.033 93H15.1a4.1 4.1 0 01-4.1-4.1V20.567a4.1 4.1 0 014.1-4.1h1.367V15.1a4.1 4.1 0 014.1-4.1H72.5a4.1 4.1 0 014.1 4.1v28.983zm-56.033-30.35c-.755 0-1.367.612-1.367 1.367v1.367h34.167c.013 0 .025.003.038.005a.153.153 0 00.053.006c.116.007.23.03.34.067a.445.445 0 00.053.011c.017.003.032.006.04.01a.12.12 0 01.024.013l.023.015c.149.066.284.159.4.273l16.4 16.4c.115.116.207.252.274.4a.052.052 0 00.01.016c.005.006.011.014.018.031.007.017.01.034.012.052l.009.042c.037.109.059.222.065.337a.214.214 0 00.01.04c.004.016.008.032.008.048v8.67l.82-.358a1.366 1.366 0 011.083 0l.82.357V15.1c0-.755-.612-1.367-1.367-1.367H20.567zm45.9 19.134L54.733 21.133V31.5c0 .755.612 1.367 1.367 1.367h10.367zm19.086 48.042a11.182 11.182 0 004.714-9.08V52.964L72.5 45.288 57.233 51.89l-.026.011-2.474 1.069v18.86c.014 3.61 1.77 6.99 4.714 9.079L72.5 90.2l13.053-9.292zm-47.22-23.442H19.2a1.367 1.367 0 110-2.734H52v-2.667a.15.15 0 01.005-.034c.002-.01.005-.021.005-.032H19.2a1.367 1.367 0 010-2.733h37.2l6.327-2.734H19.2a1.367 1.367 0 010-2.733h43.733c.755 0 1.367.612 1.367 1.367-.005.299-.11.588-.3.82l4.4-1.904V35.6H56.1a4.1 4.1 0 01-4.1-4.1V19.2H15.1c-.755 0-1.367.612-1.367 1.367V88.9c0 .755.612 1.367 1.367 1.367h51.933c.215-.006.425-.063.613-.167L60.2 84.8h-41a1.367 1.367 0 010-2.733h37.34a13.984 13.984 0 01-2.297-2.734H43.8a1.367 1.367 0 110-2.733h9.062c-.324-.885-.555-1.8-.691-2.733H19.2a1.367 1.367 0 010-2.734H52V68.4H19.2a1.367 1.367 0 010-2.733H52v-2.734H19.2a1.367 1.367 0 110-2.733H52v-2.733H38.334z" fill="#DAB588"/><path d="M71.953 48.5l-13.667 5.904c-.498.217-.82.71-.82 1.254v16.17a8.443 8.443 0 003.565 6.853l10.676 7.6c.475.338 1.111.338 1.585 0l10.677-7.6a8.446 8.446 0 003.564-6.852v-16.17c0-.545-.321-1.038-.82-1.255L73.046 48.5a1.367 1.367 0 00-1.093 0zM84.8 56.563V71.83a5.71 5.71 0 01-2.418 4.634L72.5 83.491l-9.883-7.036a5.706 5.706 0 01-2.417-4.626V56.556l12.3-5.312 12.3 5.32z" fill="#617D97"/><path d="M65.12 68.673a1.367 1.367 0 00-1.64 2.187l5.467 4.1c.59.443 1.426.337 1.887-.24l10.933-13.666a1.367 1.367 0 10-2.134-1.708L69.528 71.979l-4.408-3.306z" fill="#617D97"/></svg>