<svg width="199" height="94" fill="none" xmlns="http://www.w3.org/2000/svg"><path fill-rule="evenodd" clip-rule="evenodd" d="M36.268 40.55a4.516 4.516 0 00-1.637-.262h-7.268v13.227h2.946v-5.173h2.947a2.154 2.154 0 011.571.459c.37.421.6.948.655 1.506.098.563.163 1.131.197 1.702.056.512.166 1.017.327 1.506h2.947a1.532 1.532 0 01-.328-.654 3.32 3.32 0 01-.13-.852c0-.13-.017-.278-.033-.425-.017-.148-.033-.295-.033-.426a2.935 2.935 0 01-.066-.72 5.05 5.05 0 00-.13-.983 3.781 3.781 0 00-.328-.916 2.049 2.049 0 00-.59-.72 4.007 4.007 0 00-.916-.459v-.065a3.065 3.065 0 001.637-1.31c.349-.62.53-1.32.524-2.03a3.522 3.522 0 00-.262-1.44c-.184-.44-.45-.84-.786-1.18a4.028 4.028 0 00-1.244-.785zm-1.179 5.304c-.422.345-.963.51-1.506.459h-3.208V42.58h3.208a2.423 2.423 0 011.506.459 1.677 1.677 0 01.524 1.374 1.964 1.964 0 01-.524 1.441z" fill="#A8906C"/><path d="M48.71 53.515c-.602.256-1.247.39-1.9.393a7.099 7.099 0 01-2.75-.523 5.723 5.723 0 01-2.03-1.441 6.592 6.592 0 01-1.31-2.161 7.47 7.47 0 01-.458-2.685 7.58 7.58 0 01.459-2.75 6.895 6.895 0 011.31-2.226 6.546 6.546 0 012.03-1.506 7.097 7.097 0 012.75-.524c.667.008 1.33.118 1.964.327a4.73 4.73 0 011.702.917c.5.4.922.888 1.244 1.44a4.63 4.63 0 01.59 2.03h-2.816a3.36 3.36 0 00-.982-1.702 2.803 2.803 0 00-1.834-.59 3.444 3.444 0 00-1.702.394c-.46.241-.844.603-1.113 1.047a5.727 5.727 0 00-.655 1.44 7.14 7.14 0 00-.197 1.703 6.593 6.593 0 00.197 1.637c.122.519.345 1.008.655 1.44.272.426.658.766 1.113.983a4.348 4.348 0 001.702.393 3.273 3.273 0 002.227-.72 3.024 3.024 0 00.916-2.161h-2.946v-2.161h5.566v7.203h-1.703l-.327-1.506a4.76 4.76 0 01-1.703 1.31zM57.876 40.288v10.805h6.483v2.488h-9.43V40.288h2.947z" fill="#A8906C"/><path d="M56.521 10.796l.357.116.078-.242-.195-.162-.24.288zM44.748 1l.24-.288-.24-.2-.24.2.24.288zM32.98 10.796l-.24-.288-.196.162.08.242.356-.116zm4.498 13.836l-.356.116.084.259h.272v-.375zm14.544 0v.375h.272l.084-.26-.356-.115zm4.485-13.836l-.025-.374-.253.016-.079.242.357.116zm15.276-1.009l.364-.092-.077-.302-.311.02.024.374zm3.766 14.838l.22.304.206-.15-.063-.246-.363.092zm-11.774 8.552l-.22.303.22.16.22-.16-.22-.303zm-5.88-4.276l.22-.303-.22.303zm-5.887-4.27l-.356-.115-.085.26.221.16.22-.304zm11.774-3.823h.375l-.491-.357.116.357zm-.007 0l-.303.22.071.099.117.038.115-.357zm11.767 3.81l.2-.316-.215-.136-.205.15.22.303zm12.952 8.166l.348.14.116-.29-.264-.167-.2.317zm-5.677 14.223v.375h.254l.094-.236-.348-.14zm-14.55 0l-.357.115.085.26h.272v-.375zm-2.246-6.922l.357-.115-.357.115zm-2.252-6.914l-.22-.304-.221.16.084.26.357-.116zM68.268 47l-.303-.22-.053.104.356.116zM32.994 10.796l.357-.116-.079-.242-.253-.016-.025.374zM17.71 9.787l.024-.374-.311-.02-.077.302.364.092zm-3.759 14.838l-.363-.092-.063.246.206.15.22-.304zm11.767 8.552l-.22.303.22.16.22-.16-.22-.303zm11.767-8.545l.22.303.22-.16-.084-.259-.356.116zm-23.534-.013l.22-.304-.205-.149-.215.136.2.317zM1 32.784l-.2-.317-.264.166.116.29.348-.139zm5.684 14.223l-.348.139.094.236h.254v-.375zm14.55 0v.375h.272l.084-.26-.357-.115zm4.491-13.836l.357.115.084-.259-.22-.16-.22.304zM21.233 47l.357-.116-.053-.105-.303.22zm35.288 36.204l.24.288.195-.162-.078-.242-.357.116zM44.748 93l-.24.288.24.2.24-.2-.24-.288zM32.98 83.204l-.357-.116-.079.242.196.162.24-.288zm4.498-13.836v-.375h-.272l-.084.26.356.115zm14.544 0l.356-.116-.084-.259h-.273v.375zm4.485 13.843l-.357.116.079.241.253.017.025-.374zm15.276 1.008l-.024.374.311.02.077-.302-.364-.092zm3.766-14.844l.363.092.063-.246-.206-.15-.22.304zm-11.774-8.552l.22-.304-.22-.16-.22.16.22.304zM52.01 69.375l-.22-.304-.22.16.084.26.356-.116zm11.774 3.824l-.116.356.49-.357h-.374zm-.007 0l-.116-.357-.116.038-.071.098.303.22zm11.767-3.811l-.22.303.205.15.215-.136-.2-.317zm12.952-8.166l.2.318.264-.167-.116-.29-.348.14zM82.818 47l.348-.139-.094-.236h-.254V47zM63.77 60.836l-.357-.116-.084.26.22.16.22-.304zM32.994 83.211l.025.374.253-.017.079-.242-.357-.115zM17.71 84.219l-.364.092.077.303.311-.02-.024-.375zm-3.759-14.844l-.22-.304-.206.15.063.246.363-.092zm11.767-8.552l.22-.303-.22-.16-.22.16.22.303zm11.767 8.552l.357.115.084-.259-.22-.16-.221.304zm-23.534.013l-.2.317.215.136.205-.15-.22-.303zM1 61.222l-.348-.139-.116.29.264.167.2-.318zM6.684 47v-.375H6.43l-.094.236.348.139zm19.041 13.836l.22.303.221-.16-.084-.259-.357.116zm31.036-50.328L44.987.712l-.48.576 11.774 9.796.48-.576zM44.508.712L32.74 10.508l.48.576 11.767-9.796-.48-.576zm-11.884 10.2l4.499 13.836.713-.232-4.499-13.836-.713.232zM52.38 24.748l4.499-13.836-.714-.232-4.498 13.836.713.232zm-14.596.104l7.268-10.005-.607-.441-7.268 10.005.607.441zm6.661-10.005l7.275 10.005.607-.44-7.275-10.006-.607.44zm11.961-4.408l-11.774 3.83.233.714 11.773-3.83-.232-.714zm-11.541 3.83l-11.767-3.83-.232.713 11.766 3.83.233-.712zm11.669-3.099l15.276-1.008-.05-.749-15.276 1.009.05.748zM71.42 9.88l3.765 14.838.727-.185-3.765-14.838-.727.185zm3.908 14.442l-11.773 8.552.44.606L75.77 24.93l-.44-.607zm-11.332 8.552l-5.88-4.276-.441.607 5.88 4.275.44-.606zm-5.88-4.276l-5.887-4.27-.44.607 5.886 4.27.44-.607zm-5.751-3.85l4.498-13.836-.713-.232-4.498 13.836.713.232zm11.785 8.43l.007-12.37h-.75L63.4 33.177h.75zm-.484-12.727l-11.773 3.824.231.713L63.9 21.165l-.232-.714zm-7.463-9.435l7.269 10.012.607-.44-7.269-10.013-.607.441zm7.456 10.149l11.774 3.817.231-.713-11.773-3.818-.232.713zm11.683 3.771l12.952 8.166.4-.635-12.952-8.165-.4.634zm12.804 7.71L82.47 46.867l.696.278 5.677-14.223-.696-.278zm-5.33 13.986H68.269v.75h14.55v-.75zm-14.192.259l-2.246-6.921-.714.231 2.246 6.921.714-.231zm-2.246-6.922l-2.253-6.915-.713.233 2.253 6.915.713-.233zm-2.389-6.495l11.773-8.552-.44-.607-11.774 8.552.441.607zm4.581 13.747l7.275-10.006-.606-.441-7.275 10.005.606.441zm7.088-10.583l-11.774-3.824-.231.713 11.773 3.824.232-.713zm-.491-12.02v12.377h.75V24.619h-.75zm.072 12.597l7.275 10.012.606-.44-7.275-10.013-.606.44zM33.019 10.422L17.735 9.413l-.049.749L32.97 11.17l.05-.748zm-15.672-.727L13.59 24.533l.727.184L18.074 9.88l-.727-.185zM13.732 24.93l11.767 8.551.44-.606-11.766-8.552-.441.607zm24.11-.413L33.352 10.68l-.714.232 4.492 13.836.714-.232zm-11.748 8.661v-12.37h-.75v12.37h.75zm-.491-12.012l11.767 3.823.232-.713-11.767-3.824-.232.713zm7.087-10.59l-7.274 10.012.606.441 7.275-10.012-.606-.44zm-7.087 9.876L13.836 24.27l.232.713 11.767-3.817-.232-.714zm-11.85 3.85L.8 32.468l.4.635 12.952-8.166-.4-.634zM.651 32.924l5.684 14.223.696-.279-5.684-14.222-.696.278zm6.032 14.459h14.55v-.75H6.683v.75zm19.262-14.515l-11.774-8.552-.44.607 11.773 8.552.44-.607zm-4.41 13.912l-7.274-10.005-.607.441L20.93 47.22l.607-.44zm-7.462-9.428l11.767-3.824-.232-.713-11.766 3.824.232.713zm-.497-12.732l.007 12.376h.75l-.007-12.376h-.75zm.078 12.155L6.38 46.786l.607.441 7.275-10.012-.607-.44zm42.626 46.142l-11.773 9.796.48.576 11.773-9.796-.48-.576zm-11.294 9.796l-11.766-9.796-.48.576 11.767 9.796.48-.576zm-11.65-9.392l4.499-13.836-.713-.232-4.499 13.836.713.232zm18.329-13.836l4.498 13.836.714-.232-4.499-13.836-.713.232zm-14.49.104L44.444 79.6l.607-.44-7.268-10.012-.607.44zm7.875 10.013l7.275-10.013-.607-.44-7.275 10.012.607.44zm11.586 3.246l-11.774-3.824-.231.714 11.773 3.824.232-.714zm-12.005-3.824l-11.767 3.825.232.713 11.766-3.824-.231-.714zm11.851 4.562l15.277 1.008.05-.748-15.277-1.009-.05.749zm15.665.726l3.765-14.844-.727-.185-3.765 14.845.727.184zm3.622-15.24L63.997 60.52l-.441.607 11.773 8.552.44-.607zm-24.117.42l4.498 13.836.713-.232-4.498-13.836-.713.231zM63.4 60.822l.007 12.376h.75l-.007-12.376h-.75zm.498 12.019l-11.774-3.824-.231.713 11.773 3.824.232-.713zM56.81 83.431l7.269-10.012-.607-.44-7.269 10.011.607.44zm7.081-9.876l11.773-3.824-.231-.713-11.774 3.824.232.713zm11.851-3.85l12.952-8.165-.4-.635-12.952 8.166.4.634zm13.1-8.622l-5.677-14.222-.696.278 5.677 14.222.696-.278zm-6.025-14.458h-14.55v.75h14.55v-.75zM63.549 61.139l11.774 8.552.44-.607-11.773-8.551-.44.606zm4.416-13.919l7.275 10.012.606-.44-7.275-10.013-.606.441zm7.462 9.435L63.654 60.48l.231.714 11.774-3.824-.232-.714zm.491 12.733V57.012h-.75v12.376h.75zm-.072-12.156l7.275-10.011-.606-.441L75.24 56.79l.606.441zM32.97 82.836l-15.283 1.009.05.748 15.283-1.008-.05-.749zm-14.895 1.291l-3.758-14.844-.727.184 3.758 14.844.727-.184zm-3.901-14.45l11.766-8.55-.44-.608-11.767 8.552.44.607zm22.956-.418l-4.492 13.836.714.231 4.492-13.836-.714-.231zm-11.785-8.436v12.376h.75V60.823h-.75zm.49 12.732l11.768-3.824-.232-.713-11.767 3.824.232.713zm7.463 9.435l-7.275-10.012-.606.441 7.274 10.012.607-.44zm-7.462-10.148l-11.767-3.824-.232.713 11.767 3.824.232-.713zm-11.683-3.771L1.2 60.905l-.4.635 12.952 8.165.4-.634zM1.348 61.36L7.032 47.14l-.696-.278L.652 61.083l.696.279zm5.336-13.986h14.55v-.75H6.683v.75zm18.821 13.158l-11.773 8.551.44.607 11.774-8.552-.441-.606zM20.93 46.779l-7.275 10.012.607.441 7.275-10.012-.607-.44zm-7.087 10.59l11.767 3.824.231-.714-11.767-3.824-.231.714zm.484 12.019l.007-12.376h-.75l-.007 12.376h.75zm-.065-12.597L6.987 46.78l-.607.44 7.275 10.012.607-.44zm23.217-31.784h14.544v-.75H37.478v.75zM25.94 33.48l11.767-8.545-.44-.607-11.767 8.546.44.606zM21.59 47.123l4.492-13.836-.713-.231-4.492 13.836.713.231zm15.89 22.621h14.543v-.75H37.478v.75zm26.076-9.223L51.789 69.07l.44.607 11.768-8.552-.441-.606zm4.356-13.636L63.413 60.72l.713.232 4.499-13.836-.713-.232zM25.499 61.126l11.766 8.552.441-.607L25.94 60.52l-.44.606zm-4.622-14.01l4.492 13.836.713-.232-4.492-13.836-.713.232z" fill="url(#paint0_linear)"/><path fill-rule="evenodd" clip-rule="evenodd" d="M102.6 32.777h-2.94v6.49h1.433v-2.338h1.507c.353.01.704-.05 1.034-.177a1.847 1.847 0 001.094-1.126c.08-.252.122-.515.124-.78a2.555 2.555 0 00-.124-.765 1.89 1.89 0 00-.393-.655 1.976 1.976 0 00-.701-.465 2.566 2.566 0 00-1.034-.184zm.078 3.065a2.744 2.744 0 01-.471 0l-1.114.046v-1.965h1.114c.158 0 .315.013.471.04.14.021.276.068.4.137a.779.779 0 01.281.301c.077.155.113.326.105.498.008.174-.028.348-.105.504a.766.766 0 01-.281.295 1.075 1.075 0 01-.4.144zM107.406 39.162c.426.182.886.27 1.349.262.461.008.918-.081 1.342-.262a2.79 2.79 0 001.008-.714c.29-.309.513-.675.655-1.074.151-.42.226-.863.223-1.31a3.92 3.92 0 00-.223-1.348 3.255 3.255 0 00-.655-1.1 2.893 2.893 0 00-1.008-.727 3.587 3.587 0 00-2.691 0 2.906 2.906 0 00-1.009.727 3.483 3.483 0 00-.654 1.1c-.147.434-.22.89-.216 1.349-.003.445.07.888.216 1.31.146.396.369.76.654 1.073.279.31.624.554 1.009.714zm2.167-1.107a1.663 1.663 0 01-.818.19 1.706 1.706 0 01-.825-.19 1.529 1.529 0 01-.544-.497 2.215 2.215 0 01-.308-.694 3.256 3.256 0 01-.091-.8c-.003-.28.028-.559.091-.831.061-.254.165-.495.308-.714.138-.21.324-.382.544-.504.255-.13.539-.192.825-.183.284-.01.566.053.818.183.222.121.41.294.55.504.144.218.246.46.301.714a3.429 3.429 0 010 1.63 2.055 2.055 0 01-.301.695c-.14.208-.329.379-.55.497z" fill="#222220"/><path d="M115.931 39.424c-.463.009-.922-.08-1.349-.262a2.823 2.823 0 01-1.001-.714 3.075 3.075 0 01-.655-1.074 3.946 3.946 0 01-.223-1.31 4.1 4.1 0 01.223-1.348 3.27 3.27 0 01.655-1.1c.278-.31.62-.558 1.001-.727a3.278 3.278 0 011.349-.262c.344 0 .686.05 1.015.15.312.1.605.254.865.452.264.2.487.449.654.734.17.312.275.655.308 1.008h-1.381a1.218 1.218 0 00-.164-.452 1.417 1.417 0 00-.321-.36 1.555 1.555 0 00-.432-.242 1.494 1.494 0 00-.511-.085 1.658 1.658 0 00-.818.183c-.22.123-.409.296-.55.504-.144.218-.246.46-.302.714a3.478 3.478 0 000 1.63c.057.248.159.484.302.695.142.206.33.377.55.497.252.133.533.198.818.19a1.31 1.31 0 001.028-.406c.262-.292.421-.663.452-1.054h1.388a3.418 3.418 0 01-.281 1.107 2.798 2.798 0 01-.603.838c-.254.232-.552.41-.877.524a3.14 3.14 0 01-1.14.17zM122.754 39.424c-.463.009-.922-.08-1.348-.262a2.818 2.818 0 01-1.002-.714 3.075 3.075 0 01-.655-1.074 3.917 3.917 0 01-.216-1.31 4.097 4.097 0 01.216-1.348 3.27 3.27 0 01.655-1.1c.278-.31.62-.558 1.002-.727a3.27 3.27 0 011.348-.262c.344 0 .686.05 1.015.15.312.1.605.254.865.452.264.2.487.449.654.734.17.312.277.655.315 1.008h-1.388a1.218 1.218 0 00-.164-.452 1.398 1.398 0 00-.321-.36 1.555 1.555 0 00-.432-.242 1.494 1.494 0 00-.511-.085 1.658 1.658 0 00-.818.183c-.22.122-.406.295-.544.504-.145.217-.25.46-.308.714a3.478 3.478 0 000 1.63c.06.249.164.484.308.695.138.208.325.378.544.497.252.133.534.198.818.19a1.307 1.307 0 001.028-.406c.262-.292.421-.663.452-1.054h1.382a3.394 3.394 0 01-.282 1.107 2.795 2.795 0 01-.602.838c-.254.232-.553.41-.878.524a3.139 3.139 0 01-1.133.17zM126.579 32.784h1.427v4.512h.026l2.482-4.512h1.604v6.509h-1.427v-4.525h-.027l-2.475 4.525h-1.61v-6.509zM133.402 32.784h1.434v4.512h.026l2.481-4.512h1.605v6.509h-1.434v-4.525h-.02l-2.482 4.525h-1.61v-6.509zM138.024 30.82c0 .936-.589 1.4-1.761 1.4s-1.761-.464-1.761-1.4h1.06a.729.729 0 00.164.465.655.655 0 00.537.183.724.724 0 00.55-.177c.11-.131.164-.3.151-.471h1.06zM143.125 39.424a3.27 3.27 0 01-1.355-.262 2.835 2.835 0 01-1.002-.714 3.076 3.076 0 01-.655-1.074 3.917 3.917 0 01-.216-1.31 4.096 4.096 0 01.216-1.348c.144-.406.367-.78.655-1.1.279-.31.62-.559 1.002-.727.428-.183.89-.272 1.355-.262.342 0 .682.05 1.009.15.312.1.604.253.864.452.265.2.487.449.655.734.17.312.276.655.314 1.008h-1.388a1.2 1.2 0 00-.164-.452 1.475 1.475 0 00-1.257-.688 1.69 1.69 0 00-.825.184 1.541 1.541 0 00-.543.504 2.12 2.12 0 00-.308.714 3.477 3.477 0 000 1.63c.059.249.163.484.308.695.137.208.324.378.543.497.254.133.538.198.825.19a1.313 1.313 0 001.022-.406c.262-.292.42-.663.451-1.054h1.389a3.394 3.394 0 01-.282 1.107c-.145.315-.349.6-.602.838-.254.232-.553.41-.878.524a3.13 3.13 0 01-1.133.17zM146.943 32.784h1.434v2.606l2.547-2.606h1.788l-2.809 2.724 3.051 3.785h-1.794l-2.299-2.895-.484.524v2.37h-1.434v-6.508z" fill="#222220"/><path fill-rule="evenodd" clip-rule="evenodd" d="M157.269 32.784h-1.467l-2.462 6.509h1.441l.511-1.447h2.429l.498 1.447h1.486l-2.436-6.509zm-.74 1.604l.819 2.39h-1.683l.845-2.39h.019zM161.047 36.065c.266.33.635.56 1.048.654l-1.984 2.56h1.788l1.728-2.455h1.028v2.456h1.421v-6.516h-3.189a3.082 3.082 0 00-.857.118c-.259.07-.5.192-.708.36a1.832 1.832 0 00-.491.616 2.115 2.115 0 00-.183.897c-.023.47.118.933.399 1.31zm3.608-2.161v1.866l-1.348-.033c-.161 0-.321-.013-.478-.039a1.025 1.025 0 01-.4-.157.77.77 0 01-.275-.301 1.032 1.032 0 01-.105-.498.93.93 0 01.098-.452c.066-.109.158-.2.269-.262.117-.065.246-.108.38-.124.148-.013.297-.013.445 0h1.414z" fill="#222220"/><path d="M99.705 43.726h4.525v1.205h-3.091v5.31h-1.434v-6.515zM104.996 43.726h4.872v1.205h-3.438v1.395h3.156v1.113h-3.156v1.597h3.51v1.205h-4.944v-6.515zM110.961 43.726h2.017l1.519 4.479h.02l1.441-4.48h2.016v6.516h-1.342v-4.616h-.02l-1.591 4.616h-1.106l-1.598-4.57h-.013v4.57h-1.343v-6.515zM118.996 43.726h2.017l1.519 4.479h.019l1.441-4.48h2.017v6.516h-1.343v-4.616h-.019l-1.591 4.616h-1.107l-1.598-4.57h-.013v4.57h-1.342v-6.515z" fill="#222220"/><path fill-rule="evenodd" clip-rule="evenodd" d="M128.838 50.123c.426.18.886.268 1.349.262.462.005.921-.084 1.348-.262a2.97 2.97 0 001.009-.713c.284-.314.506-.678.655-1.074.144-.422.217-.864.216-1.31a4.15 4.15 0 00-.216-1.349 3.414 3.414 0 00-.655-1.093 2.83 2.83 0 00-1.009-.727 3.303 3.303 0 00-1.348-.269 3.272 3.272 0 00-1.349.269 2.863 2.863 0 00-1.002.727c-.29.316-.513.688-.655 1.093-.149.434-.224.89-.223 1.35a4 4 0 00.223 1.309c.144.398.366.763.655 1.074a3 3 0 001.002.713zm2.174-1.12a1.71 1.71 0 01-.825.184v-.026a1.55 1.55 0 01-1.369-.655 2.11 2.11 0 01-.301-.7 3.259 3.259 0 01-.099-.8c0-.278.033-.555.099-.825.055-.256.157-.5.301-.72.142-.206.33-.377.55-.498.252-.132.534-.197.819-.19.286-.006.57.059.825.19.219.12.405.29.543.498.146.22.25.464.308.72.064.27.094.548.091.825.003.27-.027.538-.091.8a2.12 2.12 0 01-.308.7c-.14.206-.326.377-.543.498z" fill="#222220"/><path d="M134.436 50.313a1.687 1.687 0 01-.615-.111v-1.166h.216a.771.771 0 00.569-.229c.178-.2.297-.444.347-.707.095-.41.152-.83.171-1.25 0-.511.046-1.127.046-1.847v-1.31h4.694v6.509h-1.434v-5.304h-1.905c0 .753-.039 1.46-.079 2.115a8.642 8.642 0 01-.235 1.709c-.1.425-.308.817-.603 1.14a1.59 1.59 0 01-1.172.451z" fill="#222220"/><path fill-rule="evenodd" clip-rule="evenodd" d="M142.687 50.123c.427.18.886.268 1.349.262.462.005.921-.084 1.348-.262.382-.166.725-.409 1.009-.713.284-.314.506-.678.655-1.074.144-.422.217-.864.216-1.31a4.15 4.15 0 00-.216-1.349 3.396 3.396 0 00-.655-1.093 2.886 2.886 0 00-1.009-.727 3.303 3.303 0 00-1.348-.269 3.272 3.272 0 00-1.349.269 2.863 2.863 0 00-1.002.727c-.29.316-.513.688-.655 1.093a3.97 3.97 0 00-.223 1.35c-.002.445.073.888.223 1.309.144.398.366.763.655 1.074a3 3 0 001.002.713zm2.174-1.12a1.71 1.71 0 01-.825.184v-.026a1.553 1.553 0 01-1.369-.655 2.11 2.11 0 01-.301-.7 3.424 3.424 0 010-1.624c.055-.257.157-.501.301-.721.142-.206.33-.377.55-.498.252-.132.534-.197.819-.19.286-.006.57.059.825.19.219.12.405.29.543.498.146.22.25.464.308.72.064.27.095.548.092.825.003.27-.028.538-.092.8a2.12 2.12 0 01-.308.7c-.14.206-.326.377-.543.498z" fill="#222220"/><path d="M148.233 43.726h4.525v1.205h-3.091v5.31h-1.434v-6.515zM153.524 43.726h1.427v4.518h.026l2.482-4.518h1.604v6.515h-1.421v-4.524h-.032l-2.482 4.524h-1.604v-6.515zM163.739 47.766l-.577.118c-.23.045-.465.067-.7.065a4.165 4.165 0 01-1.048-.117 1.771 1.771 0 01-.766-.393 1.63 1.63 0 01-.472-.701 3.108 3.108 0 01-.163-1.06v-1.965h1.434v1.964a.94.94 0 00.334.825c.252.172.553.257.858.243.219.002.439-.018.654-.06.203 0 .354-.065.459-.091v-2.888h1.427v6.509h-1.427l-.013-2.449zM166.456 43.726h4.872v1.205h-3.438v1.395h3.156v1.113h-3.156v1.597h3.51v1.205h-4.944v-6.515zM175.204 50.385a3.396 3.396 0 01-1.349-.262 3.006 3.006 0 01-1.001-.713 3.123 3.123 0 01-.655-1.074 3.97 3.97 0 01-.216-1.31 4.098 4.098 0 01.216-1.349c.142-.405.364-.777.655-1.093a2.85 2.85 0 011.001-.727 3.451 3.451 0 012.364-.111c.312.1.604.252.865.451.266.197.489.447.654.734.171.309.276.65.308 1.002h-1.381a1.218 1.218 0 00-.164-.452 1.529 1.529 0 00-.321-.36 1.555 1.555 0 00-.432-.243 1.494 1.494 0 00-.511-.085 1.66 1.66 0 00-.818.19c-.22.12-.406.29-.544.498-.146.22-.25.463-.308.72a3.422 3.422 0 000 1.624c.059.25.164.488.308.7.14.207.326.377.544.498.252.13.534.194.818.184a1.308 1.308 0 001.028-.4c.261-.296.419-.668.452-1.06h1.388c-.031.384-.126.76-.281 1.113a2.783 2.783 0 01-.603.831 2.626 2.626 0 01-.877.53 3.277 3.277 0 01-1.14.164zM179.028 43.726h1.434v2.606l2.541-2.606h1.794l-2.815 2.73 3.057 3.785h-1.794l-2.298-2.894-.485.517v2.377h-1.434v-6.515z" fill="#222220"/><path fill-rule="evenodd" clip-rule="evenodd" d="M189.355 43.726h-1.467l-2.469 6.515h1.441l.511-1.453h2.435l.498 1.453h1.486l-2.435-6.515zm-.74 1.604l.818 2.39h-1.683l.845-2.39h.02zM193.133 47.013c.265.327.631.558 1.041.655l-1.964 2.527h1.787l1.729-2.449h1.015v2.45h1.421v-6.51h-3.189c-.29 0-.578.038-.858.112a2.01 2.01 0 00-.707.36 1.85 1.85 0 00-.491.655c-.126.28-.189.584-.184.89-.021.47.12.932.4 1.31zm3.608-2.167v1.872h-1.349a2.272 2.272 0 01-.478-.046 1.131 1.131 0 01-.4-.15.858.858 0 01-.281-.308 1.055 1.055 0 01-.105-.491.879.879 0 01.105-.452.683.683 0 01.268-.262 1.05 1.05 0 01.38-.13c.148-.022.296-.032.445-.033h1.415z" fill="#222220"/><path d="M99.758 61.255a1.69 1.69 0 01-.616-.111v-1.166c.035.006.07.006.105 0h.111a.771.771 0 00.57-.23c.177-.202.297-.448.347-.713.095-.41.152-.83.17-1.25 0-.511.046-1.127.046-1.84v-1.31h4.695v6.548h-1.427v-5.31h-1.912c0 .753-.04 1.46-.072 2.114a8.963 8.963 0 01-.243 1.71 2.55 2.55 0 01-.602 1.145 1.582 1.582 0 01-1.172.413z" fill="#222220"/><path fill-rule="evenodd" clip-rule="evenodd" d="M109.835 54.668h-1.467l-2.462 6.515h1.441l.511-1.447h2.429l.498 1.447h1.486l-2.436-6.515zm-.74 1.61l.819 2.39h-1.683l.845-2.39h.019zM117.791 54.668h-4.806l-.033 6.567h3.058a3.74 3.74 0 00.969-.117c.272-.071.527-.198.747-.374.213-.176.381-.4.491-.655a2.53 2.53 0 000-1.84 1.752 1.752 0 00-.485-.654 1.96 1.96 0 00-.733-.374 3.33 3.33 0 00-.91-.117h-1.696v-1.258h3.398v-1.178zm-1.094 5.153a1.445 1.445 0 01-.812.196h-1.466v-1.82h1.46c.147.001.294.017.439.046a1.2 1.2 0 01.36.15c.1.072.179.17.229.282a.906.906 0 01.085.426.808.808 0 01-.295.72zM121.026 61.065c.426.182.886.271 1.349.262.463.01.923-.08 1.349-.262a2.855 2.855 0 001.008-.714c.286-.312.508-.677.655-1.073.146-.422.219-.864.216-1.31a4.097 4.097 0 00-.216-1.349 3.505 3.505 0 00-.655-1.1 2.976 2.976 0 00-1.008-.727 3.274 3.274 0 00-1.349-.262c-.463-.009-.923.08-1.349.262a2.947 2.947 0 00-1.002.727c-.289.32-.511.694-.655 1.1-.152.433-.228.89-.223 1.349-.003.446.072.89.223 1.31.142.399.365.764.655 1.073.277.309.619.553 1.002.714zm2.167-1.12a1.663 1.663 0 01-.818.19 1.664 1.664 0 01-.819-.19 1.544 1.544 0 01-.55-.497 2.074 2.074 0 01-.301-.694 3.476 3.476 0 010-1.63c.055-.255.158-.497.301-.715.14-.21.329-.383.55-.504a1.861 1.861 0 011.637 0c.223.12.412.293.55.504.143.219.247.46.308.714a3.64 3.64 0 010 1.63 2.213 2.213 0 01-.308.695 1.49 1.49 0 01-.55.497zM129.486 54.668h-2.94v6.489h1.434v-2.338h1.506c.353.01.704-.05 1.034-.177a1.88 1.88 0 00.701-.471c.176-.188.309-.411.393-.655a2.61 2.61 0 00.124-.78 2.554 2.554 0 00-.124-.765 1.891 1.891 0 00-.393-.655 2.05 2.05 0 00-.701-.472 2.689 2.689 0 00-1.034-.176zm.078 3.058a3.63 3.63 0 01-.471.032l-1.113.014v-1.965h1.113c.158 0 .316.013.471.04.141.021.276.068.4.137a.779.779 0 01.281.301.988.988 0 01.105.498c.009.174-.027.347-.105.504a.758.758 0 01-.281.294 1.07 1.07 0 01-.4.145zM135.49 54.668h-1.466l-2.462 6.515h1.44l.511-1.447h2.436l.491 1.447h1.486l-2.436-6.515zm-.74 1.61l.826 2.39h-1.69l.851-2.39h.013z" fill="#222220"/><path d="M139.36 55.873h-1.951v-1.205h5.337v1.205h-1.952v5.31h-1.434v-5.31z" fill="#222220"/><path fill-rule="evenodd" clip-rule="evenodd" d="M145.011 61.065c.428.183.89.272 1.356.262.45.013.898-.067 1.316-.236.385-.16.729-.403 1.008-.714.29-.309.513-.674.655-1.073.146-.422.219-.864.216-1.31a4.097 4.097 0 00-.216-1.349 3.27 3.27 0 00-.655-1.1 2.913 2.913 0 00-1.008-.727 3.602 3.602 0 00-2.698 0 2.947 2.947 0 00-1.002.727c-.288.32-.511.694-.655 1.1-.146.434-.22.89-.216 1.349-.002.446.071.889.216 1.31.142.399.365.764.655 1.073.288.303.639.537 1.028.688zm2.174-1.12a1.663 1.663 0 01-.818.19 1.688 1.688 0 01-.825-.19 1.53 1.53 0 01-.544-.497 2.104 2.104 0 01-.308-.694 3.476 3.476 0 010-1.63c.058-.256.163-.498.308-.715.138-.21.324-.382.544-.504.254-.132.538-.197.825-.19.284-.008.566.058.818.19.22.123.408.296.55.504.141.22.243.46.301.714.066.272.099.552.099.832 0 .269-.033.537-.099.799a2.182 2.182 0 01-.301.694c-.142.206-.33.377-.55.497zM153.465 54.668h-2.934v6.489h1.428v-2.338h1.506c.355.009.708-.051 1.041-.177.263-.104.5-.265.694-.471a1.67 1.67 0 00.393-.655 2.4 2.4 0 00.124-.78c.002-.26-.041-.518-.124-.765a1.706 1.706 0 00-.393-.655 2.09 2.09 0 00-.694-.472 2.754 2.754 0 00-1.041-.176zm.098 3.058c-.159.02-.318.031-.478.032l-1.113.013v-1.964h1.113c.16 0 .32.013.478.04.14.022.275.069.399.137a.755.755 0 01.275.301.987.987 0 01.105.498c.009.174-.027.347-.105.504a.74.74 0 01-.275.294 1.112 1.112 0 01-.399.145z" fill="#222220"/><path d="M156.608 54.668h1.427v4.518h.026l2.482-4.518h1.604v6.515h-1.42v-4.525h-.033l-2.482 4.525h-1.604v-6.515z" fill="#222220"/><path fill-rule="evenodd" clip-rule="evenodd" d="M163.837 57.955c.263.33.63.56 1.041.655l-1.971 2.639h1.788l1.735-2.456h1.008v2.456h1.428V54.7h-3.189a3.03 3.03 0 00-.851.118 1.97 1.97 0 00-.714.36 1.745 1.745 0 00-.485.616 2.034 2.034 0 00-.19.851c-.028.47.114.935.4 1.31zm3.601-2.161v1.866l-1.349-.033c-.158 0-.315-.012-.471-.039a.976.976 0 01-.399-.157.83.83 0 01-.282-.301 1.032 1.032 0 01-.105-.498.93.93 0 01.098-.452.802.802 0 01.269-.262c.12-.065.251-.108.386-.124a2.46 2.46 0 01.446 0h1.407z" fill="#222220"/><defs><linearGradient id="paint0_linear" x1="71.719" y1="9.84" x2="17.698" y2="84.16" gradientUnits="userSpaceOnUse"><stop stop-color="#EFD89F"/><stop offset="1" stop-color="#93753E"/></linearGradient></defs></svg>